<?xml version="1.0" encoding="utf-8"?><!DOCTYPE svg PUBLIC "-//W3C//DTD SVG 1.1//EN" "http://www.w3.org/Graphics/SVG/1.1/DTD/svg11.dtd"><svg x="0" y="0" width="340px" height="340px" viewBox="0, 0, 340, 340" preserveAspectRatio="xMidYMid" font-size="0" id="a" enable-background="new 0 0 340 340" xmlns="http://www.w3.org/2000/svg" xmlns:xlink="http://www.w3.org/1999/xlink" xmlns:xml="http://www.w3.org/XML/1998/namespace" version="1.1"><g id="b" fill="#000"><g transform="translate(210.1952, 245.501)" id="c"><ellipse cx="32.5" cy="17.5" rx="37.3" ry="13.2" opacity="0.15" id="d" /><use xlink:href="#e" x="0.86" y="0" /></g><g transform="translate(64.99519, 245.001)" id="f"><ellipse cx="32.5" cy="17.5" rx="37.3" ry="13.2" opacity="0.15" id="g" /><use xlink:href="#e" x="0.97" y="0" /></g></g><g id="h" fill="#000"><g id="i"><g transform="translate(0, 0) translate(0, 224)" id="j"><ellipse cx="168.6" cy="53.1" rx="57.8" ry="12.8" fill-opacity="0.25" id="k" /></g><g id="l"><g transform="translate(108.4, 109.8) translate(22, 133)" id="m" /><g transform="translate(128, 276.6) scale(1.086275) translate(-128, -276.6) translate(110.8, 107.2) translate(11, 124)" id="n"><path d="M5.5 31.6 C4 25 -4.5 8.1 4.9 2.8 C11.3 -0.8 29.6 0.5 37.7 7.3 C45.8 14.2 46.2 40.5 24.1 25 C20 22.1 30.1 37 24.8 45 C21.8 49.6 7.3 50.2 3.5 45.6 C-0.1 41.2 6.3 35.3 5.5 31.6 z" id="o" fill="#665F57" /><path d="M5.4 33.3 C4.6 33.9 3.7 34.2 2.7 34.2 C4.1 32.7 4.8 30.6 4.6 28.6 C4.5 28.4 4.5 28.2 4.4 27.9 C8.2 26 22.2 17.3 25.8 14.2 C25.8 17.2 29.4 22.5 28.2 26.7 C26.7 31.5 30 36.9 24.8 44.9 C21.8 49.5 7.3 50.1 3.5 45.5 C0.4 41.8 4.6 37 5.4 33.3 z" id="p" fill="#EDEEEF" /><path d="M4.9 2.8 C11.3 -0.8 29.6 0.5 37.7 7.3 C45.3 13.8 46.1 37.3 28 27.4 C27.1 31.8 29.5 36.8 25.4 43.8 C25.2 44.2 25 44.6 24.8 44.9 C21.8 49.5 7.3 50.1 3.5 45.5 C2.9 44.8 2.6 44.1 2.5 43.3 C1.8 40 4.8 36.2 5.4 33.2 C4.6 33.8 3.7 34.1 2.7 34.1 C4.1 32.6 4.8 30.5 4.6 28.5 C4.5 28.3 4.5 28.1 4.4 27.8 C1.8 20.1 -3.1 7.3 4.9 2.8 z M5.5 3.2 C-1.6 7.3 3.9 19 6.2 26.2 C6.3 26.5 6.3 26.7 6.4 26.8 C6.6 28.6 5.9 31 4.6 32.4 C5.5 32.4 7.2 30.9 8 30.3 C7.4 33.1 3.9 37.3 4.5 40.4 C4.6 41.1 4.9 41.8 5.4 42.4 C8.8 46.6 21.7 46.1 24.4 41.8 C24.6 41.5 24.8 41.1 25 40.8 C28.6 34.3 25.9 29.2 26.7 25.2 C42.9 34.2 44.1 14.1 37.4 8.2 C30.2 2 11.2 -0.1 5.5 3.2 z" opacity="0.15" id="q" /></g><g transform="translate(211.7, 276.6) scale(1.086275) translate(-211.7, -276.6) translate(109.6, 107.2) translate(86, 148) scale(-1, 1) translate(-86, -148) translate(64, 123)" id="r"><path d="M5.5 32.6 C4 26 -5.2 7.6 4.9 3.8 C30.4 -6.1 41.7 9.9 43.4 18.9 C45.8 31.2 30.5 28 24 26 C19.2 24.5 30 38 24.7 46 C21.7 50.6 7.2 51.2 3.4 46.6 C-0.1 42.2 6.3 36.3 5.5 32.6 z" id="s" fill="#665F57" /><path d="M5.5 34.3 C4.7 34.9 3.8 35.2 2.8 35.2 C4.2 33.7 4.9 31.6 4.7 29.6 C4.6 29.4 4.6 29.2 4.5 28.9 C8.3 27 22.3 18.3 25.9 15.2 C25.9 18.2 25.3 21.7 24.1 25.9 C22.6 30.7 30.1 37.9 24.8 45.9 C21.8 50.5 7.3 51.1 3.5 46.5 C0.4 42.8 4.7 38 5.5 34.3 z" id="t" fill="#EDEEEF" /><path d="M4.9 3.8 C11.3 0.2 29.6 1.5 37.7 8.3 C45.3 14.8 46.1 38.3 28 28.4 C27.1 32.8 29.5 37.8 25.4 44.8 C25.2 45.2 25 45.6 24.8 45.9 C21.8 50.5 7.3 51.1 3.5 46.5 C2.9 45.8 2.6 45.1 2.5 44.3 C1.8 41 4.8 37.2 5.4 34.2 C4.6 34.8 3.7 35.1 2.7 35.1 C4.1 33.6 4.8 31.5 4.6 29.5 C4.5 29.3 4.5 29.1 4.4 28.8 C1.8 21.1 -3.1 8.3 4.9 3.8 z M5.5 4.2 C-1.6 8.3 3.9 20 6.2 27.2 C6.3 27.5 6.3 27.7 6.4 27.8 C6.6 29.6 5.9 32 4.6 33.4 C5.5 33.4 7.2 31.9 8 31.3 C7.4 34.1 3.9 38.3 4.5 41.4 C4.6 42.1 4.9 42.8 5.4 43.4 C8.8 47.6 21.7 47.1 24.4 42.8 C24.6 42.5 24.8 42.1 25 41.8 C28.6 35.3 25.9 30.2 26.7 26.2 C42.9 35.2 44.1 15.1 37.4 9.2 C30.2 3 11.2 0.9 5.5 4.2 z" opacity="0.15" id="u" /></g><g transform="translate(102.6, 91.49998) translate(26, 69)" id="v"><path d="M76.6 41.7 C69 21.4 55 1.6 40.6 0.4 C26.2 1.7 12.2 21.4 4.6 41.7 C-0.4 55.2 4.3 71.1 8 84.1 C11 94.7 13.7 112.3 27.1 116.3 C30.7 117.6 35.1 118 40.6 118 C46.1 118 50.5 117.6 54.1 116.3 C67.4 112.3 70.2 94.7 73.2 84.1 C76.9 71 81.7 55.1 76.6 41.7 z" id="w" fill="#665F57" /><path d="M76.6 41.7 C69 21.4 55 1.6 40.6 0.4 C26.2 1.7 12.2 21.4 4.6 41.7 C2.1 48.3 2 55.6 3 62.8 C10 70.9 23.1 75.4 40 75.4 C55.9 75.4 71.2 70.9 78.2 62.8 C79.2 55.5 79.1 48.3 76.6 41.7 z" id="x" fill="#776F64" /><path d="M2.9 62.3 C2 55.3 2.1 48.1 4.6 41.7 C12.2 21.4 26.2 1.7 40.6 0.4 C55 1.6 69 21.4 76.6 41.7 C81.7 55.1 76.9 71 73.2 84.1 C70.2 94.7 67.4 112.3 54.1 116.3 C50.5 117.6 46.1 118 40.6 118 C35.1 118 30.7 117.6 27.1 116.3 C13.7 112.3 11 94.7 8 84.1 C6.1 77.4 3.9 69.9 2.9 62.3 z M4.4 61.2 C5.3 68.5 7.4 75.7 9.3 82.1 C12.2 92.3 14.8 109.2 27.7 113 C31.2 114.2 35.4 114.6 40.7 114.6 C46 114.6 50.2 114.2 53.7 113 C66.5 109.2 69.2 92.2 72.1 82.1 C75.7 69.5 80.3 54.2 75.4 41.4 C67.9 21.9 54.4 2.9 40.6 1.7 C26.8 2.9 13.3 21.9 6 41.4 C3.7 47.6 3.5 54.4 4.4 61.2 z" opacity="0.15" id="y" /></g><g transform="translate(130.4832, 201.206) scale(0.7918854, 0.7635894) translate(-120.4, -187.9) translate(87.4, 86.29999) translate(33, 103)" id="z"><g id="a1"><path d="M48.8 34 C46.6 34 38.7 32 37.5 31.2 C33.2 28.2 31.8 27.2 27.1 23 C25.9 21.9 24.3 16.5 22.7 14.9 C17.2 9.4 9.6 -1.4 5.4 0.3 C5 0.5 4.3 2.6 3.8 3.9 C1.9 8.4 1.4 11.6 0.7 18 C0 24.4 1.5 39.1 2.2 43.1 C3.6 50.8 5.5 55.4 7.4 65.5 C9.3 75.6 10.8 87.1 9.2 89 C8.5 89.9 2.7 94.1 1.4 97.9 C1.1 98.8 1.4 103 2.6 104.9 C3.7 106.7 12 106.1 14.5 106.1 C19.4 106.1 28.6 105.2 30.9 103.9 C33.2 102.6 34.8 98.1 34.7 94.5 C34.6 90.9 32.3 75.9 32.9 59.9 C33 51.7 31.9 44 34 41.4 C34.5 40.8 36.1 42.5 37.6 43.7 C39.5 45.3 41.4 46.7 43.1 47.7 C46 49.4 47.8 50.4 48 50.4 C48.5 50.4 49.3 50.2 50.2 49.8 C51.5 49.3 53.2 48.9 54.5 48 C55.8 47.2 57.8 45.9 58.5 45.5 C60.8 43.9 63.1 41.5 64 42.4 C66.6 45 64.8 50.8 65.1 59.8 C65.7 75.7 63.5 90.8 63.3 94.4 C63.1 98 64.7 102.5 67.1 103.8 C69.5 105.1 78.6 106 83.5 106 C85.9 106 94.2 106.6 95.4 104.8 C96.5 102.9 96.9 98.8 96.6 97.8 C95.2 94 89.5 89.8 88.8 88.9 C87.2 87 88.8 72.3 90.7 62.2 C92.6 52.1 93.9 48.1 95.3 40.4 C96 36.4 96.9 24.8 96.9 18.8 C96.7 12.8 95.1 5.6 93.5 2.6 C92.9 0.9 93.1 -0.6 91.8 0.3 C89.4 2 84.5 7.4 82 10.8 C80.1 13.4 77.3 14.7 74.4 18 C72.3 20.3 70.4 25.9 68.5 27.6 C63.9 31.6 51 34 48.8 34 z" id="b1" fill="#9B8C78" /><path d="M5.4 0.1 C5 0.3 4.3 2.4 3.8 3.7 C1.9 8.2 1.4 11.4 0.7 17.8 C0 24.2 1.4 38.9 2.1 43 C2.1 43.1 2.1 43.2 2.2 43.3 C2.6 43.2 4.1 45 5.4 45.1 C7.1 45.3 8.5 43.7 8.7 41.5 C8.8 39.1 6.9 35.4 6.9 31.3 C6.8 24.8 8.8 17.5 10.6 14 C12.9 9.7 10.5 4.6 8.7 1.2 C7.4 0.2 6.3 -0.2 5.4 0.1 z" id="c1" fill="#F2E5D3" /><path d="M95.3 40.4 C96 36.4 96.9 24.8 96.9 18.8 C96.7 12.8 95.1 5.6 93.5 2.6 C92.9 0.9 93.1 -0.6 91.8 0.3 C91 0.8 90.1 1.8 89.1 3 C87.5 6.3 86.1 10.5 88 14.2 C89.8 17.6 89.9 27.7 89.1 34.9 C88.6 39.3 87.4 41.4 87.5 43.7 C87.9 50 93.5 46.7 94.1 46.3 C94.1 45.9 95.2 40.8 95.3 40.4 z" id="d1" fill="#F2E5D3" /><g id="e1"><path d="M48.8 34 C51 34 63.9 31.6 68.5 27.6 C70.4 25.9 72.3 20.3 74.4 18 C77.3 14.7 80.1 13.4 82 10.8 C84.5 7.4 89.4 2 91.8 0.3 C93.1 -0.6 92.9 0.9 93.5 2.6 C95.1 5.6 96.7 12.8 96.9 18.8 C96.9 24.8 96 36.4 95.3 40.4 C93.9 48.1 92.6 52.1 90.7 62.2 C88.8 72.3 87.2 87 88.8 88.9 C89.5 89.8 95.2 94 96.6 97.8 C96.9 98.8 96.5 102.9 95.4 104.8 C94.2 106.6 85.9 106 83.5 106 C78.6 106 69.5 105.1 67.1 103.8 C64.7 102.5 63.1 98 63.3 94.4 C63.5 90.8 65.7 75.7 65.1 59.8 C64.8 50.8 66.6 45 64 42.4 C63.1 41.5 60.8 43.9 58.5 45.5 C57.8 45.9 55.8 47.2 54.5 48 C53.2 48.9 51.5 49.3 50.2 49.8 C49.3 50.2 48.5 50.4 48 50.4 C47.8 50.4 46 49.4 43.1 47.7 C41.4 46.7 39.5 45.3 37.6 43.7 C36.1 42.5 34.5 40.8 34 41.4 C31.9 44 33 51.7 32.9 59.9 C32.3 75.9 34.6 90.9 34.7 94.5 C34.8 98.1 33.2 102.6 30.9 103.9 C28.6 105.2 19.4 106.1 14.5 106.1 C12 106.1 3.7 106.7 2.6 104.9 C1.4 103 1.1 98.8 1.4 97.9 C2.7 94.1 8.5 89.9 9.2 89 C10.8 87.1 9.3 75.6 7.4 65.5 C5.5 55.4 3.6 50.8 2.2 43.1 C1.5 39.1 0 24.4 0.7 18 C1.4 11.6 1.9 8.4 3.8 3.9 C4.3 2.6 5 0.5 5.4 0.3 C9.6 -1.4 17.2 9.4 22.7 14.9 C24.3 16.5 25.9 21.9 27.1 23 C31.8 27.2 33.2 28.2 37.5 31.2 C38.7 32 46.6 34 48.8 34 z M48.8 36 C46.7 36 39.3 33.2 38.1 32.5 C34 29.7 30.6 28.5 26.1 24.5 C25 23.5 22.3 17.6 20.8 16.1 C15.6 10.9 11.8 1.7 7.8 3.3 C7.4 3.5 6.8 5.5 6.3 6.7 C4.5 10.9 4.1 13.9 3.4 20 C2.7 26.1 4.2 39.9 4.8 43.7 C6.1 51 7.9 55.3 9.7 64.8 C11.5 74.3 13.5 86.4 11.9 88.2 C11.9 90.1 4.5 94.9 3.9 96.6 C3.6 97.4 3.9 100.3 5.1 102.1 C6.1 103.8 14 103.2 16.3 103.2 C20.9 103.2 27.9 102.3 30 101 C32.1 99.7 32.8 94.2 32.7 90.8 C32.6 87.4 29.4 71.9 30 56.8 C30.1 49.1 30 39.8 32 37.4 C32.5 36.8 37.5 42 39 43.2 C40.8 44.7 47.9 48.3 48.7 47.9 C49.9 47.4 53.2 46.3 54.4 45.5 C55.6 44.7 59.7 41.6 60.4 41.3 C62.6 39.8 65.1 38.1 66.5 38.1 C68 40.2 67 51 67.3 59.5 C67.9 74.5 64.8 88.8 64.6 92.2 C64.4 95.6 65 99.9 67.3 101.1 C69.6 102.3 76.8 103.2 81.5 103.2 C83.8 103.2 91.5 104.9 92.6 103.2 C93.6 101.4 94.4 98.7 94.1 97.8 C92.8 94.2 87.8 91.8 87.2 90.9 C85.7 89.1 86.5 71.4 88.3 61.9 C90.1 52.4 91.3 48.6 92.6 41.3 C93.3 37.5 94.1 26.6 94.1 20.9 C94 15.1 92.5 8.3 91 5.4 C90.4 3.8 90.6 2.4 89.4 3.2 C87.1 4.8 83.9 10.2 81.6 13.4 C79.8 15.9 76.9 17.5 74.1 20.6 C72.1 22.8 71.2 27.1 69.4 28.7 C65 32.6 50.9 36 48.8 36 z" fill-opacity="0.3" id="f1" /></g></g></g></g><g transform="translate(169.7, 184.7) scale(0.8808743) translate(-169.7, -184.7)" id="g1"><g transform="translate(92.7, 72.59998) translate(22, 25)" id="h1"><path d="M55.1 6.6 C55.8 6.6 60 3.9 60.8 3.9 C59.5 4.8 61.3 6 62.6 6 C65.7 6.2 71.2 2.5 74.2 3 C75.6 3.2 80.1 3.2 80.1 3.9 C77.3 5 78 5 78.7 5.5 C81.4 7.1 86.3 9.4 89.9 12 C91.3 13 96.4 13.1 97.4 8 C98.7 10.4 98.6 14.3 98.6 17.8 C98.6 19.5 97.6 20.2 101.5 17.8 C101.6 18.2 102 20.2 101.5 21.4 C100.8 23.2 99.3 24.5 99.5 24.8 C101 26.4 102.3 28.7 103.4 32 C102.9 31.5 101.9 30.8 100.3 30 C98 28.7 100.5 31.6 103.4 34.7 C106.3 37.8 108.7 41.3 111.5 42.1 C108.7 42.2 107.5 41.5 107.3 41.3 C107.1 41 110 43.2 110.6 45.7 C109.6 45 108.2 44.1 106.5 43.2 C109.3 45.5 110.6 47.6 110.6 49.3 C109.2 49.1 108.8 49.5 109.6 50.3 C112.1 53.2 113.6 55.9 113.9 58.6 C112.3 57.5 111.5 57.8 111.5 59.9 C111.5 62 114.9 61.9 113.9 68 C112.2 65.5 112.6 69.2 113.2 71.6 C113.8 74 112.7 73.7 111.5 75.6 C113.1 75.2 113.7 75.2 113.2 75.6 C110.6 78.1 108.8 80.6 107.8 82.9 C107.8 81.4 107.2 80.3 105.9 79.8 C105.5 82 105.3 83.6 105.3 84.6 C105.3 86 100.3 87.2 100.3 90.1 C100.3 92 99.3 93.6 97.3 94.8 L95.8 91.2 C94.4 92 93.5 93.2 93.2 94.8 C92.7 97.2 91 100.7 89.8 100.7 C89.6 99.4 89.2 98.1 88.5 96.8 C88.6 99.4 88.4 101.2 87.8 102.2 C87.2 103.2 86.4 104.3 85.3 105.5 L85.3 102.2 C84.6 104.4 83.4 106.1 81.7 107.3 C79.2 109.1 80.7 110.5 78.5 112.8 C77.3 110.4 77.5 113.7 76.6 115.9 C75.7 118.1 73 120.9 71.8 121.5 C71.3 120.4 71 119.5 71 118.7 C70 120 69.3 123.2 67.1 124.8 C65.6 125.8 64.4 126.4 63.3 126.4 C61.4 129.8 60.2 131.9 59.6 132.5 C59 133.1 58.7 131.7 58.7 128.1 C57 132.5 56.3 135 56.7 135.8 C57.2 136.9 52.7 133.6 52 129.2 C50.8 130.1 50.6 130.2 50.5 131.7 C50.4 133.2 47.3 125.2 47.1 122.3 C46.5 123.4 46.1 124.6 46.1 125.8 C44.4 124 43.4 122.6 42.9 121.7 C42.2 120.4 42.8 118.4 42.1 117.5 C41.1 116 40.2 114 39.3 111.4 C40.5 113.9 40.5 115.7 39.3 116.9 C37.8 114.6 35.1 114.4 35.1 110 C34.7 110.8 34.7 112 35.1 113.5 C34.4 112.8 31.8 110 30.9 107.5 C30 105 30.3 101.5 29.8 100.8 C29.1 102 28.6 101.3 29 104.9 C28.2 104.9 26.9 104.6 25.9 103.1 C25.1 101.9 24.3 98.6 23.7 98.2 C22.7 97.5 20.9 99.6 20.3 98.2 C19.9 97.3 21.3 92.7 21 92.6 C18.2 92.9 19.5 93.4 17.7 95 C14.3 93.1 16.2 92.4 14.6 90.3 C13.5 88.9 13.1 86.8 13.5 84 C12.4 85 12.1 86.2 12.7 87.6 C10.8 87.4 9.6 84.1 9.6 82.2 C8.5 83.3 7.9 84.2 7.7 84.9 C5.7 82.8 4.7 79.5 4.5 75.1 C4.4 70.7 4.7 68 5.5 67.1 C3.7 67.4 2.6 69 2.1 71.9 C0.7 69.8 -0.3 66.5 0.2 62.2 C0.5 59.4 1.3 56.7 2.6 54.1 L0.6 56.7 C-0.2 55 -0.2 53.1 0.6 51.1 C1.8 48.1 5.7 44.1 7.3 40.1 C8.3 37.4 9.3 35.7 10.2 34.9 C9.1 35.8 8.3 36.6 7.8 37 C7.4 37.5 6.3 37.9 4.6 38.3 C6.1 37 7 36 7.2 35.4 C7.9 33.9 8.1 32.8 8.2 32.6 C8.3 32.3 7.1 33 4.6 34.8 C5.7 31.7 6.5 29.7 7.2 28.6 C8.3 26.9 10.9 25.5 10.9 25 C10.9 23.5 11.2 22.7 9.7 21.6 C8.7 20.8 7.9 18.2 7.2 13.8 L10.1 15.6 C9.2 8.8 8.8 5.6 8.8 6 C8.8 6.4 10.2 8.4 12.8 12 C15.7 14.1 17.8 14.9 19.1 14.1 C21 13 23.5 8.5 26.4 8 C27.1 7.9 28.2 6.8 29.2 6.5 C32 5.7 35.3 5.4 37 4.5 C37.7 4.2 40 4.3 40.9 3.8 C41.4 3.5 35.6 1.2 37 1 C37.5 0.9 41.6 1.9 44.1 3 C44.5 3.2 45.4 3.9 45.7 3.4 C46 3 45.7 1.4 46.2 1.7 C47.4 2.3 49.2 5.4 49.4 5.5 C50.3 5.8 52.9 4.5 53.6 4.6 C54.6 4.9 53.6 6.6 55.1 6.6 z" id="i1" fill="#776F64" /><path d="M55.1 6.6 C55.8 6.6 60 3.9 60.8 3.9 C59.5 4.8 61.3 6 62.6 6 C65.7 6.2 71.2 2.5 74.2 3 C75.6 3.2 80.1 3.2 80.1 3.9 C77.3 5 78 5 78.7 5.5 C81.4 7.1 86.3 9.4 89.9 12 C91.3 13 96.4 13.1 97.4 8 C98.7 10.4 98.6 14.3 98.6 17.8 C98.6 19.5 97.6 20.2 101.5 17.8 C101.6 18.2 102 20.2 101.5 21.4 C100.8 23.2 99.3 24.5 99.5 24.8 C101 26.4 102.3 28.7 103.4 32 C102.9 31.5 101.9 30.8 100.3 30 C98 28.7 100.5 31.6 103.4 34.7 C106.3 37.8 108.7 41.3 111.5 42.1 C108.7 42.2 107.5 41.5 107.3 41.3 C107.1 41 110 43.2 110.6 45.7 C109.6 45 108.2 44.1 106.5 43.2 C109.3 45.5 110.6 47.6 110.6 49.3 C109.2 49.1 108.8 49.5 109.6 50.3 C112.1 53.2 113.6 55.9 113.9 58.6 C112.3 57.5 111.5 57.8 111.5 59.9 C111.5 62 114.9 61.9 113.9 68 C112.2 65.5 112.6 69.2 113.2 71.6 C113.8 74 112.7 73.7 111.5 75.6 C113.1 75.2 113.7 75.2 113.2 75.6 C110.6 78.1 108.8 80.6 107.8 82.9 C107.8 81.4 107.2 80.3 105.9 79.8 C105.5 82 105.3 83.6 105.3 84.6 C105.3 86 100.3 87.2 100.3 90.1 C100.3 92 99.3 93.6 97.3 94.8 L95.8 91.2 C94.4 92 93.5 93.2 93.2 94.8 C92.7 97.2 91 100.7 89.8 100.7 C89.6 99.4 89.2 98.1 88.5 96.8 C88.6 99.4 88.4 101.2 87.8 102.2 C87.2 103.2 86.4 104.3 85.3 105.5 L85.3 102.2 C84.6 104.4 83.4 106.1 81.7 107.3 C79.2 109.1 80.7 110.5 78.5 112.8 C77.3 110.4 77.5 113.7 76.6 115.9 C75.7 118.1 73 120.9 71.8 121.5 C71.3 120.4 71 119.5 71 118.7 C70 120 69.3 123.2 67.1 124.8 C65.6 125.8 64.4 126.4 63.3 126.4 C61.4 129.8 60.2 131.9 59.6 132.5 C59 133.1 58.7 131.7 58.7 128.1 C57 132.5 56.3 135 56.7 135.8 C57.2 136.9 52.7 133.6 52 129.2 C50.8 130.1 50.6 130.2 50.5 131.7 C50.4 133.2 47.3 125.2 47.1 122.3 C46.5 123.4 46.1 124.6 46.1 125.8 C44.4 124 43.4 122.6 42.9 121.7 C42.2 120.4 42.8 118.4 42.1 117.5 C41.1 116 40.2 114 39.3 111.4 C40.5 113.9 40.5 115.7 39.3 116.9 C37.8 114.6 35.1 114.4 35.1 110 C34.7 110.8 34.7 112 35.1 113.5 C34.4 112.8 31.8 110 30.9 107.5 C30 105 30.3 101.5 29.8 100.8 C29.1 102 28.6 101.3 29 104.9 C28.2 104.9 26.9 104.6 25.9 103.1 C25.1 101.9 24.3 98.6 23.7 98.2 C22.7 97.5 20.9 99.6 20.3 98.2 C19.9 97.3 21.3 92.7 21 92.6 C18.2 92.9 19.5 93.4 17.7 95 C14.3 93.1 16.2 92.4 14.6 90.3 C13.5 88.9 13.1 86.8 13.5 84 C12.4 85 12.1 86.2 12.7 87.6 C10.8 87.4 9.6 84.1 9.6 82.2 C8.5 83.3 7.9 84.2 7.7 84.9 C5.7 82.8 4.7 79.5 4.5 75.1 C4.4 70.7 4.7 68 5.5 67.1 C3.7 67.4 2.6 69 2.1 71.9 C0.7 69.8 -0.3 66.5 0.2 62.2 C0.5 59.4 1.3 56.7 2.6 54.1 L0.6 56.7 C-0.2 55 -0.2 53.1 0.6 51.1 C1.8 48.1 5.7 44.1 7.3 40.1 C8.3 37.4 9.3 35.7 10.2 34.9 C9.1 35.8 8.3 36.6 7.8 37 C7.4 37.5 6.3 37.9 4.6 38.3 C6.1 37 7 36 7.2 35.4 C7.9 33.9 8.1 32.8 8.2 32.6 C8.3 32.3 7.1 33 4.6 34.8 C5.7 31.7 6.5 29.7 7.2 28.6 C8.3 26.9 10.9 25.5 10.9 25 C10.9 23.5 11.2 22.7 9.7 21.6 C8.7 20.8 7.9 18.2 7.2 13.8 L10.1 15.6 C9.2 8.8 8.8 5.6 8.8 6 C8.8 6.4 10.2 8.4 12.8 12 C15.7 14.1 17.8 14.9 19.1 14.1 C21 13 23.5 8.5 26.4 8 C27.1 7.9 28.2 6.8 29.2 6.5 C32 5.7 35.3 5.4 37 4.5 C37.7 4.2 40 4.3 40.9 3.8 C41.4 3.5 35.6 1.2 37 1 C37.5 0.9 41.6 1.9 44.1 3 C44.5 3.2 45.4 3.9 45.7 3.4 C46 3 45.7 1.4 46.2 1.7 C47.4 2.3 49.2 5.4 49.4 5.5 C50.3 5.8 52.9 4.5 53.6 4.6 C54.6 4.9 53.6 6.6 55.1 6.6 z" opacity="0.15" id="j1" /><path d="M55.1 6.6 C55.8 6.6 60 3.9 60.8 3.9 C59.5 4.8 61.3 6 62.6 6 C65.7 6.2 71.2 2.5 74.2 3 C75.6 3.2 80.1 3.2 80.1 3.9 C77.3 5 78 5 78.7 5.5 C81.4 7.1 86.3 9.4 89.9 12 C91.3 13 96.4 13.1 97.4 8 C98.7 10.4 98.6 14.3 98.6 17.8 C98.6 19.5 97.6 20.2 101.5 17.8 C101.6 18.2 102 20.2 101.5 21.4 C100.8 23.2 99.3 24.5 99.5 24.8 C101 26.4 102.3 28.7 103.4 32 C102.9 31.5 101.9 30.8 100.3 30 C98 28.7 100.5 31.6 103.4 34.7 C106.3 37.8 108.7 41.3 111.5 42.1 C108.7 42.2 107.5 41.5 107.3 41.3 C107.1 41 110 43.2 110.6 45.7 C109.6 45 108.2 44.1 106.5 43.2 C109.3 45.5 110.6 47.6 110.6 49.3 C109.2 49.1 108.8 49.5 109.6 50.3 C112.1 53.2 113.6 55.9 113.9 58.6 C112.3 57.5 111.5 57.8 111.5 59.9 C111.5 62 114.9 61.9 113.9 68 C112.2 65.5 112.6 69.2 113.2 71.6 C113.8 74 112.7 73.7 111.5 75.6 C113.1 75.2 113.7 75.2 113.2 75.6 C110.6 78.1 108.8 80.6 107.8 82.9 C107.8 81.4 107.2 80.3 105.9 79.8 C105.5 82 105.3 83.6 105.3 84.6 C105.3 86 100.3 87.2 100.3 90.1 C100.3 92 99.3 93.6 97.3 94.8 L95.8 91.2 C94.4 92 93.5 93.2 93.2 94.8 C92.7 97.2 91 100.7 89.8 100.7 C89.6 99.4 89.2 98.1 88.5 96.8 C88.6 99.4 88.4 101.2 87.8 102.2 C87.2 103.2 86.4 104.3 85.3 105.5 L85.3 102.2 C84.6 104.4 83.4 106.1 81.7 107.3 C79.2 109.1 80.7 110.5 78.5 112.8 C77.3 110.4 77.5 113.7 76.6 115.9 C75.7 118.1 73 120.9 71.8 121.5 C71.3 120.4 71 119.5 71 118.7 C70 120 69.3 123.2 67.1 124.8 C65.6 125.8 64.4 126.4 63.3 126.4 C61.4 129.8 60.2 131.9 59.6 132.5 C59 133.1 58.7 131.7 58.7 128.1 C57 132.5 56.3 135 56.7 135.8 C57.2 136.9 52.7 133.6 52 129.2 C50.8 130.1 50.6 130.2 50.5 131.7 C50.4 133.2 47.3 125.2 47.1 122.3 C46.5 123.4 46.1 124.6 46.1 125.8 C44.4 124 43.4 122.6 42.9 121.7 C42.2 120.4 42.8 118.4 42.1 117.5 C41.1 116 40.2 114 39.3 111.4 C40.5 113.9 40.5 115.7 39.3 116.9 C37.8 114.6 35.1 114.4 35.1 110 C34.7 110.8 34.7 112 35.1 113.5 C34.4 112.8 31.8 110 30.9 107.5 C30 105 30.3 101.5 29.8 100.8 C29.1 102 28.6 101.3 29 104.9 C28.2 104.9 26.9 104.6 25.9 103.1 C25.1 101.9 24.3 98.6 23.7 98.2 C22.7 97.5 20.9 99.6 20.3 98.2 C19.9 97.3 21.3 92.7 21 92.6 C18.2 92.9 19.5 93.4 17.7 95 C14.3 93.1 16.2 92.4 14.6 90.3 C13.5 88.9 13.1 86.8 13.5 84 C12.4 85 12.1 86.2 12.7 87.6 C10.8 87.4 9.6 84.1 9.6 82.2 C8.5 83.3 7.9 84.2 7.7 84.9 C5.7 82.8 4.7 79.5 4.5 75.1 C4.4 70.7 4.7 68 5.5 67.1 C3.7 67.4 2.6 69 2.1 71.9 C0.7 69.8 -0.3 66.5 0.2 62.2 C0.5 59.4 1.3 56.7 2.6 54.1 L0.6 56.7 C-0.2 55 -0.2 53.1 0.6 51.1 C1.8 48.1 5.7 44.1 7.3 40.1 C8.3 37.4 9.3 35.7 10.2 34.9 C9.1 35.8 8.3 36.6 7.8 37 C7.4 37.5 6.3 37.9 4.6 38.3 C6.1 37 7 36 7.2 35.4 C7.9 33.9 8.1 32.8 8.2 32.6 C8.3 32.3 7.1 33 4.6 34.8 C5.7 31.7 6.5 29.7 7.2 28.6 C8.3 26.9 10.9 25.5 10.9 25 C10.9 23.5 11.2 22.7 9.7 21.6 C8.7 20.8 7.9 18.2 7.2 13.8 L10.1 15.6 C9.2 8.8 8.8 5.6 8.8 6 C8.8 6.4 10.2 8.4 12.8 12 C15.7 14.1 17.8 14.9 19.1 14.1 C21 13 23.5 8.5 26.4 8 C27.1 7.9 28.2 6.8 29.2 6.5 C32 5.7 35.3 5.4 37 4.5 C37.7 4.2 40 4.3 40.9 3.8 C41.4 3.5 35.6 1.2 37 1 C37.5 0.9 41.6 1.9 44.1 3 C44.5 3.2 45.4 3.9 45.7 3.4 C46 3 45.7 1.4 46.2 1.7 C47.4 2.3 49.2 5.4 49.4 5.5 C50.3 5.8 52.9 4.5 53.6 4.6 C54.6 4.9 53.6 6.6 55.1 6.6 z" opacity="0.1" id="k1" /><path d="M59.5 9 C60 10.2 61.7 8.2 62.4 8.2 C63.7 8.3 64.2 10.1 65.5 10.3 C67.1 10.5 69.4 9.1 70.9 9.3 C72.3 9.6 78.6 9 78.6 9.7 C76 10.8 76.7 10.8 77.3 11.2 C79.8 12.7 84.4 14.9 87.7 17.2 C89 18.1 93.7 18.3 94.7 13.5 C96 15.7 95.9 19.3 95.8 22.6 C95.8 24.2 94.8 24.9 98.5 22.6 C98.5 23 98.9 24.8 98.5 26 C97.9 27.7 96.4 28.9 96.7 29.2 C98.1 30.6 99.3 32.9 100.4 35.8 C98.6 35.5 98.6 36.3 100.4 38.3 C103.1 41.2 105.3 44.4 107.9 45.2 C105.3 45.3 104.2 44.7 104 44.4 C103.8 44.2 106.5 46.2 107.1 48.5 C106.1 47.8 104.9 47 103.2 46.2 C105.8 48.4 107.1 50.2 107.1 51.8 C105.8 51.6 105.5 52 106.2 52.8 C108 53.8 109.2 55.2 109.6 56.9 C107.7 56.9 108.3 56.9 108 58.5 C107.9 59.2 110.4 61.5 110.6 62.8 C108.6 62.2 108.4 64.3 108.6 64.8 C109.7 67.1 110.1 66.8 110.6 69 C110.9 70.5 110.6 72.2 109.6 74.3 C109 77.9 108.5 78.5 107.9 75.9 C107.1 72 105.7 78.1 105.3 78.6 C103.2 81 102.7 84.2 102.1 85.7 C102.1 84.3 101.2 81.9 99.4 78.6 C98.9 79.6 98.7 80.6 98.7 81.5 C98.7 82.8 98.7 85.9 96.1 89.2 C94.4 91.4 93.1 92.7 92.4 93.1 L90.9 89 C89.9 90.6 89.3 92.2 89 93.6 C88.5 95.8 88.2 94.3 87.7 96.1 C87.4 97.3 86.7 96.4 85.7 93.6 C85.7 95.3 85.5 96.8 85.1 98.2 C84.7 99.6 84.1 100.6 83.4 101.2 C83.6 99.8 83.6 98.8 83.4 98.2 C83.2 97.6 82.6 96.6 81.7 95.2 C81.3 99.7 80.7 102.3 80 103.2 C79.3 104.1 78.6 105.4 78.1 107.2 C77.7 105 77.4 103.4 77.4 102.4 C76.2 103.3 75.1 106.2 74.3 108.3 C73.5 110.4 73.4 110.9 72.1 112.7 C70.9 114.6 69.5 118.6 69.5 118.6 C69 115.1 68.7 113 68.6 112.2 C67.6 113.4 66.9 120 65.6 120.5 C65.1 118.9 64.1 117.8 62.5 117.3 C63.1 123.4 63.1 126.8 62.5 127.4 C61.9 128 61 126.9 59.6 124.1 C57.4 128.7 56.5 131.3 56.8 132 C57.1 132.6 54.9 128.4 54 124.9 C53.5 122.7 54.3 121.4 54 119.8 C52.9 120.7 51.8 122.7 51.7 124.1 C51.6 125.5 49.6 117.1 49.4 114.4 C48.8 115.4 48.3 117.2 47.8 119.8 C44.7 117.3 43 115 42.6 113 C42.2 111 42 109.7 42 109.1 C40.6 110.3 39.5 109.6 38.8 107 C37.7 103.2 38.3 103.2 38.3 103.2 C36.7 104.3 36.1 105.6 36.4 107 C35.7 106.3 35.9 104.9 35.1 101.9 C34.3 98.9 34.7 95.8 34.2 95.2 C33 96.3 32.4 99 32.5 103.2 C31.4 99.2 29.9 96.9 27.8 96.1 C24.8 95 23.9 90.3 25.7 87.4 C24.2 89.2 23.1 90.9 22.5 92.9 C22.5 91.3 20.3 89.4 18.7 87.4 C17.7 86.1 17.1 84.3 17.2 82 C15.5 84.1 15 85.7 15.5 87 C13.7 86.8 13 82 13 80.2 C12 81.2 11.3 79.2 10.8 74.1 C10 79.3 9.4 81.2 8.7 79.7 C7.8 77.7 6.9 78.2 6.8 75.3 C7 71.3 7.6 68.8 9 68 C8.1 68.6 7.3 69.1 6.6 69.6 C5.3 67.7 4.4 66.6 4.9 62.7 C5.2 60.1 5.6 57.9 6.2 56 L4.3 58.4 C3.6 56.8 3.6 55.1 4.3 53.2 C5.4 50.4 9.1 46.7 10.5 43 C11.5 40.5 12.4 38.9 13.2 38.2 C12.1 39.1 11.4 39.7 11 40.2 C10.6 40.6 9.6 41 8 41.4 C9.4 40.2 10.2 39.3 10.5 38.7 C11.1 37.3 11.3 36.3 11.4 36.1 C11.5 35.8 10.4 36.5 8 38.2 C9 35.4 9.8 33.4 10.5 32.4 C11.5 30.8 19 26.4 19 25.9 C19 24.5 14.2 27 12.8 25.9 C11.9 25.2 11.1 22.8 10.5 18.7 L13.2 20.3 C12.4 14.1 12 11.2 12 11.5 C12 11.8 13.3 13.7 15.8 17.1 C18.5 19.1 20.5 19.7 21.7 19.1 C23.5 18.1 25.8 13.9 28.5 13.4 C29.2 13.3 30.2 12.3 31.1 12 C33.7 11.3 36.8 11 38.4 10.2 C38.9 10 37.9 9.5 38.8 9 C39.3 8.7 41.8 9.1 43.1 9 C43.6 9 44.4 9.3 45.8 9.7 C46.8 9.9 47.4 7.4 47.8 7.5 C48.7 7.8 49.8 9.2 50.3 9.3 C50.9 9.5 53.2 7 54 9 C54.8 10.8 56.5 10.5 59.5 9 z" id="l1" fill="#9B8C78" /><path d="M66.4 61.3 C65.1 59.8 63.9 58.6 62.9 57.6 C61.9 56.6 60.3 55.4 58.2 53.8 C58.7 53.9 59.4 54 60.3 54.2 C61.2 54.4 62.4 55 63.8 55.5 C62.6 54.2 61.5 52.9 60.7 52.1 C59.9 51.3 58.9 50.4 57.7 49.4 C58.4 49.5 59 49.7 59.3 49.8 C59.6 49.9 60.5 50.4 61.7 50.8 C60.8 49.8 60.1 48.9 59.7 48.5 C59 47.8 58.3 47 57.9 46.5 C57.2 45.5 56.9 44.4 56.8 43.1 C56.9 41.6 57.1 40.2 57.2 38.9 C57.4 37 58.3 32.8 58.8 31.5 C59.8 28.7 61.4 27.4 63.4 25.6 C66.3 23 68.3 18.8 71.2 18.9 C74.1 19 76.6 21.3 79 23.5 C81.4 25.7 85 29.9 85.9 33.3 C86.8 36.7 85.9 41 85.9 44.5 C87.5 42.9 90.3 41.7 92.9 43.1 C95.6 44.5 98.1 46.1 99.3 47.9 C96.9 47.3 95.5 47.1 95.2 47.5 C98 48.4 99.6 50.2 100.1 52.8 C97.8 51.3 96.5 50.6 96 50.6 C98.5 53 99.9 55.5 100.1 58.3 C100.3 61 100.2 63.1 99.7 64.5 C98.4 62.1 97.2 60 96 58.3 C97.6 65 97.5 67.1 96.4 69.4 C95.3 71.7 95.3 72.3 95.3 72.3 C94.2 70.5 93.5 69 93.1 67.8 C93.5 72 94.3 75.3 93.1 76.9 C92.8 75.3 92.1 74.1 91.1 73.4 C91.2 77.1 90.7 79.8 89.5 81.6 C87.8 84.3 86.3 85.9 84.9 86.5 C85.2 85.3 85.2 84 84.9 82.6 C83.4 84.2 82.1 85.9 80.9 87.6 C79.7 89.3 78.6 90.4 77.6 91 C78.1 88.3 78.8 86.6 79.7 85.8 C77.1 87.3 72.8 93.5 70.8 94.6 C67.9 96.5 67.7 96.5 66.1 98.8 C65.8 99.2 67.4 96 67 96.2 C66.5 96.5 62.3 99.3 62.3 102 C61 102.7 61.6 96.8 60.8 97.9 C58.4 101.2 58.3 106.7 58.1 108.5 C57.6 108.1 55.6 107 54.1 104.6 C53 102.8 52.3 99.8 51.6 98.8 C50.5 101.2 52.9 103.2 50.2 101.4 C47.5 99.6 47 97.3 46.4 96.8 C45.8 96.2 43.4 95.3 42.7 94.7 C42 94.2 44.8 95.2 44.1 94.7 C42.7 93.6 41.2 92.6 40.1 91.5 C38.6 90.1 37.6 88.7 37.2 87.3 C36.7 88.8 36.7 89.8 37.2 90.5 C33.6 88 34.3 87.3 34 85.9 C33.3 87.7 32.7 87.4 33.3 88.7 C31.8 87.7 31.9 84.8 30.9 84.4 C30.1 85.8 30.2 85.5 29.7 86.6 C28 82.1 27.8 83.8 27.8 81.7 C27.6 82.8 27.3 83.7 26.8 84.4 C25.2 81.9 24.4 79.9 24.4 78.6 C24.4 77.3 24.4 76.4 24.4 75.9 C23.4 76.6 22.9 77.6 22.8 78.6 C22.8 80.2 18.7 75 18.5 71.5 C18.3 69.2 18.4 67.3 18.8 65.8 C17.4 67.4 16.8 68.8 16.9 70 C14.8 68.7 14.9 65.4 14.8 63.8 C14.7 62.2 13.9 62.1 14.2 61.2 C14.5 60.3 15.7 57.8 15.7 57.8 C13.7 59 12.7 60.3 12.6 61.6 C10.9 59.3 14 54.2 14.9 53 C14 53 13.2 53.4 12.6 54.2 C11.6 52.7 11.7 51.1 13 49.4 C13.8 46.5 14.4 44.4 15 43.1 C15.9 41.2 17 40.4 17.8 39.9 C18.6 39.4 22 38.4 23.6 44 C25.5 39.6 28.3 30.8 29.8 28.4 C31.3 26 35 20.7 37.8 19.9 C40.7 19.1 41.6 20 43.1 21.1 C44 21.7 44.8 23.2 46.4 24.7 C47.6 25.9 49.5 27 50.2 28.4 C51.1 30.2 52.3 31.3 53 33.7 C53.5 35.7 53.6 36.8 53.8 39.1 C54 41.4 54 41.2 54 43.1 C54 45 53.8 45.4 52.9 46.6 C52.6 47.1 51.5 47.8 50.7 48.6 C50.4 48.9 49.5 49.3 48.7 50.3 C50 49.9 51.2 50 51.7 49.8 C52.2 49.6 52.6 49.6 53 49.5 L50.5 51.6 L45.4 56.3 C47.5 55.4 49.7 54.4 50.2 54.2 C50.7 54 51.4 54 52.4 54 C50 55.3 48 56.2 47.5 56.7 C44.6 59.3 44.7 59.5 44.4 59.9 C45.4 59.4 49.3 57.6 55.1 57.6 C58.6 57.3 62.4 58.7 66.4 61.3 z" id="m1" fill="#F2E5D3" /><path d="M63.6 58.3 C63.4 58.1 63.1 57.8 62.9 57.6 C61.9 56.6 60.3 55.4 58.2 53.8 C58.7 53.9 59.3 54 60.1 54.2 C61.1 54.9 61.8 55.6 62.4 56.1 C63.3 57 64.4 58.1 65.6 59.5 C64.9 59.1 64.3 58.7 63.6 58.3 z M62.1 53.5 C61.6 53 61.1 52.5 60.7 52.1 C59.9 51.3 58.9 50.4 57.7 49.4 C58.2 49.5 58.6 49.6 58.9 49.7 C59.4 50.2 59.9 50.6 60.3 51 C61 51.7 62 52.7 63.1 53.9 C62.8 53.8 62.4 53.6 62.1 53.5 z M60.6 49.4 C60.2 49 60 48.7 59.7 48.5 C59 47.8 58.3 47 57.9 46.5 C57.2 45.5 56.9 44.4 56.8 43.1 C56.9 41.6 57.1 40.2 57.2 38.9 C57.4 37 58.3 32.8 58.8 31.5 C59.8 28.7 61.4 27.4 63.4 25.6 C66.3 23 68.3 18.8 71.2 18.9 C74.1 19 76.6 21.3 79 23.5 C81.4 25.7 85 29.9 85.9 33.3 C86.8 36.7 85.9 41 85.9 44.5 C87.5 42.9 90.3 41.7 92.9 43.1 C95.6 44.5 98.1 46.1 99.3 47.9 C96.9 47.3 95.5 47.1 95.2 47.5 C98 48.4 99.6 50.2 100.1 52.8 C97.8 51.3 96.5 50.6 96 50.6 C98.5 53 99.9 55.5 100.1 58.3 C100.3 61 100.2 63.1 99.7 64.5 C98.4 62.1 97.2 60 96 58.3 C97.6 65 97.5 67.1 96.4 69.4 C95.3 71.7 95.3 72.3 95.3 72.3 C94.2 70.5 93.5 69 93.1 67.8 C93.5 72 94.3 75.3 93.1 76.9 C92.8 75.3 92.1 74.1 91.1 73.4 C91.2 77.1 90.7 79.8 89.5 81.6 C87.8 84.3 86.3 85.9 84.9 86.5 C85.2 85.3 85.2 84 84.9 82.6 C83.4 84.2 82.1 85.9 80.9 87.6 C79.7 89.3 78.6 90.4 77.6 91 C78.1 88.3 78.8 86.6 79.7 85.8 C77.1 87.3 72.8 93.5 70.8 94.6 C67.9 96.5 67.7 96.5 66.1 98.8 C65.8 99.2 67.4 96 67 96.2 C66.5 96.5 62.3 99.3 62.3 102 C61 102.7 61.6 96.8 60.8 97.9 C58.4 101.2 58.3 106.7 58.1 108.5 C57.6 108.1 55.6 107 54.1 104.6 C53 102.8 52.3 99.8 51.6 98.8 C50.5 101.2 52.9 103.2 50.2 101.4 C47.5 99.6 47 97.3 46.4 96.8 C45.8 96.2 43.4 95.3 42.7 94.7 C42 94.2 44.8 95.2 44.1 94.7 C42.7 93.6 41.2 92.6 40.1 91.5 C38.6 90.1 37.6 88.7 37.2 87.3 C36.7 88.8 36.7 89.8 37.2 90.5 C33.6 88 34.3 87.3 34 85.9 C33.3 87.7 32.7 87.4 33.3 88.7 C31.8 87.7 31.9 84.8 30.9 84.4 C30.1 85.8 30.2 85.5 29.7 86.6 C28 82.1 27.8 83.8 27.8 81.7 C27.6 82.8 27.3 83.7 26.8 84.4 C25.2 81.9 24.4 79.9 24.4 78.6 C24.4 77.3 24.4 76.4 24.4 75.9 C23.4 76.6 22.9 77.6 22.8 78.6 C22.8 80.2 18.7 75 18.5 71.5 C18.3 69.2 18.4 67.3 18.8 65.8 C17.4 67.4 16.8 68.8 16.9 70 C14.8 68.7 14.9 65.4 14.8 63.8 C14.7 62.2 13.9 62.1 14.2 61.2 C14.5 60.3 15.7 57.8 15.7 57.8 C13.7 59 12.7 60.3 12.6 61.6 C10.9 59.3 14 54.2 14.9 53 C14 53 13.2 53.4 12.6 54.2 C11.6 52.7 11.7 51.1 13 49.4 C13.8 46.5 14.4 44.4 15 43.1 C15.9 41.2 17 40.4 17.8 39.9 C18.6 39.4 22 38.4 23.6 44 C25.5 39.6 28.3 30.8 29.8 28.4 C31.3 26 35 20.7 37.8 19.9 C40.7 19.1 41.6 20 43.1 21.1 C44 21.7 44.8 23.2 46.4 24.7 C47.6 25.9 49.5 27 50.2 28.4 C51.1 30.2 52.3 31.3 53 33.7 C53.5 35.7 53.6 36.8 53.8 39.1 C54 41.4 54 41.2 54 43.1 C54 45 53.8 45.4 52.9 46.6 C52.6 47.1 51.5 47.8 50.7 48.6 C50.5 48.8 50.2 49.2 49.8 49.6 C49.7 49.6 49.6 49.7 49.5 49.7 C50.2 48.8 50.8 48 51.1 47.8 C51.8 47.1 52.8 46.4 53.1 46 C53.9 44.9 53.2 44.5 53.2 42.8 C53.2 41.1 53.4 41.2 53.2 39.1 C53 37 53.1 36 52.6 34.1 C52 31.9 50.3 30.9 49.5 29.2 C48.9 27.9 46.6 27 45.5 25.9 C44 24.5 43.9 22.8 43.1 22.2 C41.7 21.2 40.9 20.4 38.3 21.1 C35.7 21.8 33.3 27 31.9 29.2 C30.5 31.4 25.3 42.2 23.5 46.3 C22 41.1 18.8 40.5 18.1 41 C17.9 41.1 16.8 43.5 16.1 44.7 C15 46.7 14.5 47.3 14.1 48.9 C12.9 50.5 12.1 51.4 13 52.8 C13.6 52.1 15.7 50.6 16.5 50.6 C15.7 51.7 14.1 56.1 13.7 58.4 C13.8 57.2 15.3 56.8 17.2 55.7 C17.2 55.7 16.4 58.2 16.2 59 C16 59.8 16.1 60.3 16.2 61.7 C16.3 63.2 14.6 65.4 16.6 66.6 C16.5 65.5 18.6 64.2 19.8 62.7 C19.4 64.1 19.6 66.9 19.8 69.1 C20 72.3 21.9 77.3 21.9 75.8 C22 74.9 23.4 73 24.3 72.4 C24.3 72.9 25.8 75.4 25.8 76.6 C25.8 77.8 24.8 79 26.3 81.3 C26.8 80.7 28.7 79.3 28.9 78.3 C28.9 80.2 28.2 79.2 29.7 83.4 C30.2 82.4 30.4 82.1 31.1 80.8 C32 81.2 31.5 83.6 32.9 84.6 C32.3 83.4 34 83.1 34.6 81.4 C34.9 82.7 32.8 84.6 36.1 86.9 C35.6 86.3 37.5 84.8 37.9 83.4 C38.3 84.7 38.5 86.7 39.9 88 C40.9 89 43.3 89.2 44.6 90.2 C45.2 90.7 41.5 89.7 42.1 90.2 C42.7 90.8 45 92.4 45.5 93 C46.1 93.5 47.2 95.8 48.9 97.6 C50.6 99.4 50 96.1 51 93.9 C51.6 94.8 52.1 97.8 53.1 99.4 C54.5 101.6 55.7 102.6 56.2 103 C56.4 101.3 59.2 97.8 61.4 94.8 C62.1 93.8 61.7 98.7 62.9 98 C62.9 95.5 67.6 92.4 68.1 92.1 C68.5 91.9 67.8 95.1 68.1 94.8 C69.6 92.7 68.5 93.3 71.1 91.6 C72.9 90.6 78.6 84.8 81 83.4 C80.2 84.1 80.1 84.8 79.6 87.3 C80.5 86.7 81.7 85 82.8 83.4 C83.9 81.8 83.6 80.5 85 79.1 C85.3 80.4 86.6 81.7 86.3 82.8 C87.6 82.2 89.6 73.5 89.5 70.1 C90.4 70.7 91.9 72.2 92.7 73.8 C93.2 72 92.3 67.5 92 63.6 C92.4 64.7 94.4 67.9 95.4 69.6 C96.4 67.5 95.5 60.6 94 54.4 C95.1 56 98.1 59.6 99.3 61.8 C99.8 60.5 99.3 57.9 98.2 55.3 C97.4 53.1 95 51.9 92.7 49.7 C93.2 49.7 96 49.7 98.2 51.1 C97.7 48.7 94.6 47.7 92 46.9 C92.3 46.5 93.9 45.9 96.1 46.4 C95 44.7 93.8 45 91.3 43.7 C88.9 42.4 86.6 45.8 85.1 47.3 C85.1 44.1 84.6 37.4 83.8 34.2 C83 31 81 27.3 78.8 25.3 C76.6 23.3 73.9 20.5 71.2 20.4 C68.5 20.3 66.1 24.5 63.5 26.9 C61.7 28.6 60.2 30.2 59.3 32.7 C59 33.8 58.2 37.3 58 39 C57.9 40.2 57.2 41.3 57.1 42.7 C57.2 43.9 57.1 44.9 57.7 45.8 C58.1 46.3 58.7 47 59.4 47.6 C59.8 48 60.3 48.6 61.1 49.5 C60.9 49.6 60.7 49.5 60.6 49.4 z M51.9 49.7 C52.3 49.6 52.6 49.6 53 49.5 L50.5 51.6 L48.2 54 C47.9 54.1 47.6 54.3 47.2 54.4 L51 50.5 L51.9 49.7 z M50.1 54.3 C50.2 54.3 50.2 54.3 50.2 54.2 C50.7 54 51.4 54 52.4 54 C50 55.3 48.5 56.2 48 56.7 C47.5 57.1 47.1 57.5 46.8 57.8 C46.2 58 45.8 58.3 45.6 58.4 C45.9 58 46 57.7 48.6 55.3 C48.9 55 49.4 54.7 50.1 54.3 z" opacity="0.5" id="n1" /></g><g transform="translate(112, 88.69998) translate(3, 2)" id="o1"><path d="M33.9 21.7 C35.1 19.6 35.4 14.7 32.2 12.1 C29.1 9.6 18.9 1.4 16 0.8 C13.1 0.2 11.9 0 9.8 0.8 C8 1.5 6.7 3.9 6.3 4.9 C5.4 7 1.1 13.6 1.1 21.6 C1.1 29.6 0.5 36.5 1.1 39.7 C1.7 42.8 3.2 42.8 4.7 42.8 C5.5 42.8 11.7 35.5 18.8 30.6 C26 25.6 32.8 23.8 33.9 21.7 z" id="p1" fill="#776F64" /><path d="M33.9 21.7 C32.8 23.8 26 25.6 18.8 30.6 C11.7 35.5 5.5 42.8 4.7 42.8 C3.2 42.8 1.7 42.8 1.1 39.7 C0.5 36.5 1.1 29.6 1.1 21.6 C1.1 13.6 5.4 7 6.3 4.9 C6.7 3.9 8 1.5 9.8 0.8 C11.9 0 13.1 0.2 16 0.8 C18.9 1.4 29.1 9.6 32.2 12.1 C35.4 14.7 35.1 19.6 33.9 21.7 z M32.1 20.3 C33.2 18.4 33.4 14.1 30.6 11.8 C27.9 9.6 18.9 2.3 16.3 1.8 C13.7 1.3 12.7 1.1 10.8 1.8 C9.2 2.4 8.1 4.5 7.7 5.4 C6.9 7.3 3.1 13.1 3.1 20.2 C3.1 27.3 2.6 33.4 3.1 36.3 C3.7 39 5 39 6.3 39 C7 39 12.5 32.5 18.7 28.2 C25.1 23.7 31.1 22.1 32.1 20.3 z" opacity="0.15" id="q1" /></g><g transform="translate(96.59999, 91.89998) translate(110, 21.5) scale(-1, 1) translate(-110, -21.5) translate(92, 0)" id="r1"><path d="M33.6 22.2 C34.4 20.7 35.3 19.4 35.3 18.1 C35.5 15.9 34.2 13.7 32.2 12.1 C29 9.6 20.6 2.3 15.9 0.8 C14.9 0.5 12.5 0.3 10.8 0.8 C8.4 1.6 6.8 3.7 6.2 4.9 C5.3 7 2.3 12.3 1 21.7 C-0.3 31 0.4 36.6 1 39.7 C1.6 42.8 3.1 42.8 4.6 42.8 C5.4 42.8 12.2 36.3 19.6 31.3 C26.6 26.5 32.8 23.6 33.6 22.2 z" id="s1" fill="#776F64" /><path d="M33.6 22.2 C32.8 23.6 26.6 26.5 19.6 31.3 C12.2 36.3 5.4 42.8 4.6 42.8 C3.1 42.8 1.6 42.8 1 39.7 C0.4 36.6 -0.3 31 1 21.7 C2.3 12.3 5.3 7 6.2 4.9 C6.8 3.7 8.4 1.6 10.8 0.8 C12.5 0.3 14.9 0.5 15.9 0.8 C20.6 2.3 29 9.6 32.2 12.1 C34.2 13.7 35.5 15.9 35.3 18.1 C35.3 19.4 34.4 20.7 33.6 22.2 z M31.9 20.5 C32.6 19.2 33.4 18 33.4 16.9 C33.6 15 32.4 13 30.6 11.6 C27.7 9.4 20.2 3 16 1.7 C15.1 1.4 13 1.3 11.4 1.7 C9.4 2.5 8 4.3 7.4 5.4 C6.6 7.2 3.9 11.9 2.8 20.1 C1.6 28.2 2.3 33.2 2.8 35.9 C3.3 38.6 4.7 38.6 6 38.6 C6.7 38.6 12.8 32.9 19.4 28.5 C25.7 24.3 31.2 21.7 31.9 20.5 z" opacity="0.15" id="t1" /></g><g id="u1"><g transform="translate(92.69999, 72.59998) translate(58, 69)" id="v1"><g transform="translate(0.270427, 0.292308)" id="w1"><path d="M3.7 28.7 C4.6 29.8 7 30.1 9.2 30.8 C12.2 31.7 15.4 32.7 18.9 32.5 C19 32.5 23.5 32 25 31.9 C29.3 31.4 32.9 31.1 34.5 28.7 C35.1 27.5 36.1 23.3 35.9 21.1 C35.8 19.9 34.2 18.2 33.3 17 C34.5 17.2 35.1 17.1 37 18.3 C36.5 17.1 34.6 14.3 33.6 13.5 C31.5 11.8 29.4 10.7 28.1 9.7 C29.3 9.6 29.8 9.9 31.4 10.2 C30.3 8.9 27.3 6.3 25.8 5.9 C27.1 5.7 27.1 5.7 28.1 5.9 C27 4.4 21.7 1.4 21.1 0.8 C21 0.7 21.1 1.7 22.1 3 C22.9 4 24.5 5 25.3 6.4 C24 5.8 22.7 5.4 21.5 5.2 C24.7 8.1 26.6 10 27.3 11 C25.8 10.5 23.7 9.7 21.8 9.7 C24.5 11 30.1 17 30 17 C28.9 16.3 27.7 15.1 25.8 14.4 C23.6 13.5 20.7 13 18.3 13 C17.5 13 14.9 13.2 13.5 13.5 C10.7 14 8.9 15 8.2 15.5 C9.6 13.7 13.4 10.8 15.8 9.5 C13.8 9.1 11.7 10.2 10.1 11.2 C11.5 9.8 14.7 6.6 16.3 5.1 C15.2 5.3 14.2 5.6 12.6 6.1 C14.6 3.9 16.5 2.3 16.6 2.1 C16.7 1.9 16.9 1.7 17.1 0.6 C15.4 1.9 9.5 5.7 7.5 7.9 C9.5 7.7 9.8 7.5 11 7.6 C9.9 8 7.4 9.8 6.5 10.5 C7.8 10.6 7.8 10.7 8.4 11.1 C7.4 11.4 5.6 12.3 3.6 14 C2.2 15.2 1.2 17.6 0.9 18.2 C2.8 17.5 3 17.2 4.1 16.7 C3.8 17.4 2.5 18.4 2.4 19.6 C2.1 21.4 3 27.8 3.7 28.7 z" id="x1" fill="#FFF6E9" /><path d="M3.7 28.7 C3 27.8 2.1 21.4 2.4 19.6 C2.5 18.4 3.8 17.4 4.1 16.7 C3 17.2 2.8 17.5 0.9 18.2 C1.2 17.6 2.2 15.2 3.6 14 C5.6 12.3 7.4 11.4 8.4 11.1 C7.8 10.7 7.8 10.6 6.5 10.5 C7.4 9.8 9.9 8 11 7.6 C9.8 7.5 9.5 7.7 7.5 7.9 C9.5 5.7 15.4 1.9 17.1 0.6 C16.9 1.7 16.7 1.9 16.6 2.1 C16.5 2.3 14.6 3.9 12.6 6.1 C14.2 5.6 15.2 5.3 16.3 5.1 C14.7 6.6 11.5 9.8 10.1 11.2 C11.7 10.2 13.8 9.1 15.8 9.5 C13.4 10.8 9.6 13.7 8.2 15.5 C8.9 15 10.7 14 13.5 13.5 C14.9 13.2 17.5 13 18.3 13 C20.7 13 23.6 13.5 25.8 14.4 C27.7 15.1 28.9 16.3 30 17 C30.1 17 24.5 11 21.8 9.7 C23.7 9.7 25.8 10.5 27.3 11 C26.6 10 24.7 8.1 21.5 5.2 C22.7 5.4 24 5.8 25.3 6.4 C24.5 5 22.9 4 22.1 3 C21.1 1.7 21 0.7 21.1 0.8 C21.7 1.4 27 4.4 28.1 5.9 C27.1 5.7 27.1 5.7 25.8 5.9 C27.3 6.3 30.3 8.9 31.4 10.2 C29.8 9.9 29.3 9.6 28.1 9.7 C29.4 10.7 31.5 11.8 33.6 13.5 C34.6 14.3 36.5 17.1 37 18.3 C35.1 17.1 34.5 17.2 33.3 17 C34.2 18.2 35.8 19.9 35.9 21.1 C36.1 23.3 35.1 27.5 34.5 28.7 C32.9 31.1 29.3 31.4 25 31.9 C23.5 32 19 32.5 18.9 32.5 C15.4 32.7 12.2 31.7 9.2 30.8 C7 30.1 4.6 29.8 3.7 28.7 z M5.3 27.4 C6.1 28.4 8.2 28.7 10.2 29.3 C12.9 30.1 15.7 31 18.9 30.8 C19 30.8 23 30.4 24.4 30.3 C28.2 29.9 31.5 29.6 32.9 27.4 C33.4 26.3 35 23.6 34.9 21.7 C34.8 20.6 33.1 17.7 32.3 16.6 C33.1 16.5 34.2 16.2 35.9 17.2 C35.5 16.1 33.5 14.3 32.6 13.6 C30.7 12.1 28.3 10.1 27.1 9.2 C28.2 9.1 28.8 9.2 30.2 9.5 C29.7 8.9 28.7 8.2 27.6 7.5 C26.5 6.7 25.7 6.6 25.5 5.8 C26.1 5.5 26.6 5.2 27.1 5.3 C26.1 4 22.3 2.2 21.7 1.7 C21.6 1.6 23.1 2.8 24 3.9 C24.7 4.7 25.3 6.6 26.1 7.1 C24.9 6.6 23.7 5.7 22.6 5.6 C25.5 8.2 27.4 10.5 28 11.4 C26.7 11 24.8 10.1 23.1 10.1 C24 10.6 26 11.8 27.4 13.3 C29.6 15.5 31.3 18 31.3 18 C30.3 17.4 26.7 15.1 25 14.5 C23 13.7 20.4 13.2 18.3 13.2 C17.6 13.2 15.3 13.4 14 13.6 C11.5 14 8.1 16.1 7 16.3 C8 14 11.8 10.9 13.9 9.8 C12.1 9.4 10.7 10.6 9.3 11.5 C10.6 10.2 13.8 6.8 15.2 5.4 C14.2 5.6 13.1 5.7 11.7 6.2 C13.5 4.2 14.2 3.7 14.3 3.5 C14.4 3.3 16.2 2.2 16.4 1.3 C14.9 2.5 10.7 5 8.9 7 C10.7 6.8 10.9 6.9 12 7 C11 7.4 8.8 9.2 8 9.8 C9.2 9.9 9 10.3 9.5 10.6 C8.6 10.9 7.2 11.8 5.4 13.3 C4.1 14.4 2.9 16.2 2.6 16.7 C4.3 16.1 4.4 15.8 5.4 15.4 C5.1 16 4.1 18.4 4 19.5 C3.7 21.3 4.7 26.6 5.3 27.4 z" opacity="0.15" id="y1" /></g></g><g fill-rule="evenOdd" transform="translate(86.59998, 101) translate(65, 60)" id="z1"><g transform="translate(0.410034, 0.940678)" id="a2"><path d="M0.3 16.6 C1.8 18.6 3.2 19.7 4.4 20 C5.6 20.3 6.9 20.3 8.3 20 C10.7 23.4 12.9 25.3 14.9 25.6 C17.8 26.1 18.5 26.1 22.2 25.5 C23 25.4 23.6 25.3 25.3 23.6 C25.8 23.1 26.3 22.2 27 20.7 C28.6 20.8 29.9 20.7 30.8 20.3 C32.2 19.7 33.5 19.3 34.9 17.4 C35.8 16.1 34.6 17 32.6 17.1 C31.4 17.2 29.8 16.5 28.7 16.3 C26.8 16 23.7 13.7 19.3 9.6 C19 7.7 18.8 6.5 18.8 5.9 C18.8 4.1 19.4 3.3 19.3 2.7 C19.1 1.5 18 0.9 17.7 0.9 C17.4 0.9 16.4 1.3 16.2 2.3 C16.1 2.9 16.5 4.1 16.4 6 C16.4 6.7 16.1 7.9 15.6 9.6 C14 11.6 12.4 13.1 11 14.2 C10.4 14.6 8.8 15.8 7.4 16.4 C6.8 16.7 5.1 17.2 3.9 17.2 C3.4 17.2 2.1 17 0.3 16.6 z" id="b2" /><path d="M10 17.7 C9.9 21.3 12.1 23.9 15.3 24.7 C17.6 25.3 19.2 25.3 21.2 24.7 C24 24.7 25.6 20.9 25.7 17.7 C25.1 17.3 24.1 16.5 23.2 15.7 C22.9 15.5 21.4 14.1 20.7 13.5 C19.7 13.8 18.2 14 17.6 14 C15.9 14 16.3 13.9 14.8 13.6 C14.3 14.1 13.1 15.6 12.6 16 C11.6 16.8 10.8 17.2 10 17.7 z" id="c2" fill="#FFB8B3" /></g></g><g transform="translate(92.69997, 72.59997) translate(67, 84)" id="d2"><g transform="translate(0.600098, 0)" id="e2"><path d="M1 6.3 C1 5.2 0.6 3.7 1.5 2.7 C2.9 1.2 6.3 0.6 9.2 0.6 C12 0.6 15.2 1.3 16.5 2.2 C17.9 3.2 17.3 5.3 17.3 6.7 C17.3 7.6 16.9 9.9 14.6 12 C13.2 13.2 10.8 13.2 9.2 13.3 C7.7 13.4 5.4 13 4.1 12 C1.9 10.1 1 7.1 1 6.3 z" id="f2" /><path d="M3.9 2.2 C3.2 2.7 2.9 3.4 3.3 3.5 C3.7 3.6 7.1 2.7 7.8 2.8 C8.5 2.9 11.8 2.8 12.8 3.5 C13.8 4.2 15.5 3 14.7 2.5 C13.9 2 11.2 1.2 8.9 1.2 C6.6 1.2 4.7 1.7 3.9 2.2 z" id="g2" fill="#FFF" /></g></g><g transform="translate(155.8, 142.7) scale(1.2) translate(-155.8, -142.7) translate(95.79997, 106) translate(48, 25)" id="h2"><g transform="translate(10.39189, 9.559633) scale(-1, 1) translate(-10.39189, -9.559633) translate(0.891892, 0.559633)" id="i2"><path d="M7 16.8 C8.5 17.2 12.9 17.1 15.3 16.8 C17.2 16.6 17.9 16.6 18.2 15.3 C18.5 14 19.8 12.3 18.7 9.2 C17 4.2 16.1 2.3 10.4 1.5 C7.1 1 4.6 -0.8 3.4 0.9 C2.5 2.3 1 7.8 1 10.6 C1 16.8 1.3 15.3 7 16.8 z" id="j2" fill="#FFF" /><path d="M9.2 17.1 C11.4 17.1 13.3 15.9 14.5 14.2 C15.1 13.3 14.8 11.9 14.5 10.8 C13.8 7.8 11.3 5.7 7.9 5.7 C4.5 5.7 2.4 7.6 1.3 10.3 C0.9 11.2 0.4 12.9 0.8 13.7 C1.4 16.8 6.8 17.1 9.2 17.1 z" id="k2" fill="#282421" /><g transform="translate(4.324324, 7.761468)" id="l2"><path d="M4.8 1.9 C4.8 0.7 3.8 -0.2 2.6 -0.2 C1.5 -0.2 0.5 0.8 0.5 2 C0.5 3.2 1.5 4.2 2.7 4.2 C2.7 4.1 2.7 4.1 2.7 4 C2.5 3.5 2.6 3 3.1 2.5 C3.7 1.9 4.2 1.8 4.8 1.9 z" id="m2" fill="#FFF" /><circle cx="4.2" cy="3.5" r="1" id="n2" fill="#FFF" /></g></g></g><g transform="translate(184.8, 142.7) scale(1.2) translate(-184.8, -142.7) translate(90.79997, 106) translate(86, 25)" id="o2"><g transform="translate(0.864865, 0.559633)" id="p2"><g transform="translate(0.378378, 0)" id="q2"><path d="M5.7 16.8 C7.2 17.2 11.6 17.1 14 16.8 C15.9 16.6 16.6 16.6 16.9 15.3 C17.2 14 18.5 12.3 17.4 9.2 C15.7 4.2 14.8 2.3 9.1 1.5 C5.8 1 3.3 -0.8 2.2 0.9 C1.2 2.3 -0.2 7.8 -0.2 10.5 C-0.3 16.8 0 15.3 5.7 16.8 z" id="r2" fill="#FFF" /><path d="M8 17.1 C10.2 17.1 12.1 15.9 13.3 14.2 C13.9 13.3 13.6 11.9 13.3 10.8 C12.6 7.8 10.1 5.7 6.7 5.7 C3.3 5.7 1.2 7.6 0.1 10.3 C-0.3 11.2 -0.8 12.9 -0.4 13.7 C0.2 16.8 5.6 17.1 8 17.1 z" id="s2" fill="#282421" /><g transform="translate(8.743243, 10.26147) scale(-1, 1) translate(-8.743243, -10.26147) translate(6.243243, 7.761468)" id="t2"><path d="M5 1.9 C5 0.7 4 -0.2 2.8 -0.2 C1.7 -0.2 0.7 0.8 0.7 2 C0.7 3.2 1.7 4.2 2.9 4.2 C2.9 4.1 2.9 4.1 2.9 4 C2.7 3.5 2.8 3 3.3 2.5 C3.9 1.9 4.4 1.8 5 1.9 z" id="u2" fill="#FFF" /><circle cx="4.4" cy="3.5" r="1" id="v2" fill="#FFF" /></g></g></g></g></g></g></g><g id="w2"><g transform="matrix(1.750974, 0, 0, 1.750974, -127.8654, -79.75239)"><g transform="translate(123.266, 63.6719) scale(0.8054844, 0.8087537)"><g transform="translate(157, 3754) translate(-2349.7, -4426.2)" id="x2"><g transform="translate(64, 0)" id="y2"><path d="M2218.8 673.8 C2219.3 672.5 2221 672.6 2221.4 673.9 C2221.9 675.3 2222.6 676.8 2224.1 678.1 C2228.7 682 2239.4 686.2 2242.4 701.9 C2245.3 717.6 2236.6 726.2 2220.9 733.4 C2205.2 740.6 2214.3 719.3 2214.3 719.3 C2214.3 719.3 2229.9 713.1 2230.2 704.4 C2230.6 695.8 2222.3 687.5 2218.6 682.8 C2217 680.8 2217.6 677 2218.8 673.8 z" id="z2" fill="#EBA527" /><path d="M2212.4 733.1 C2210.5 728.9 2214.5 719.4 2214.5 719.4 C2214.5 719.4 2230.1 713.2 2230.4 704.5 C2230.8 695.9 2222.5 687.6 2218.8 682.9 C2216.9 680.5 2217.6 676.8 2218.7 673.6 C2219.2 672.3 2220.9 672.4 2221.3 673.7 C2221.3 673.7 2216.2 676.6 2223.4 683.8 C2230.5 690.9 2234.8 697.4 2232.4 707.6 C2229.9 717.7 2207.1 725.5 2207.1 725.5 L2212.4 733.1 z" id="a3" fill="#87430F" /><path d="M2212.4 733.1 C2213.3 735.2 2215.8 736 2221 733.6 C2236.6 726.4 2245.4 717.9 2242.5 702.1 C2239.6 686.3 2228.8 682.2 2224.2 678.3 C2222.7 677 2221.8 675.5 2221.5 674.1 C2221.5 674.1 2218.9 676.9 2232.1 689.4 C2244.7 701.4 2241.5 722.4 2212.5 730.8 L2212.4 733.1 z" id="b3" fill="#FFF922" /><path d="M2211.8 719 C2211.8 719 2213.8 717.6 2215.6 719 C2217.4 720.4 2221.7 729.4 2223 732.7 C2224.3 736 2219.9 736.4 2219.9 736.4 C2219.9 736.4 2210.3 727.1 2211.8 719 z" id="c3" fill="#FEDA3B" /></g><g id="d3"><path d="M2219.3 673.8 C2218.8 672.5 2217.1 672.6 2216.7 673.9 C2216.2 675.3 2215.5 676.8 2214 678.1 C2209.4 682 2198.7 686.2 2195.7 701.9 C2192.8 717.6 2201.5 726.2 2217.2 733.4 C2232.9 740.6 2223.8 719.3 2223.8 719.3 C2223.8 719.3 2208.2 713.1 2207.9 704.4 C2207.5 695.8 2215.8 687.5 2219.5 682.8 C2221.1 680.8 2220.4 677 2219.3 673.8 z" id="e3" fill="#EBA527" /><path d="M2225.7 733 C2227.6 728.8 2223.6 719.3 2223.6 719.3 C2223.6 719.3 2208 713.1 2207.7 704.4 C2207.3 695.8 2215.6 687.5 2219.3 682.8 C2221.2 680.4 2220.5 676.7 2219.4 673.5 C2218.9 672.2 2217.2 672.3 2216.8 673.6 C2216.8 673.6 2221.9 676.5 2214.7 683.7 C2207.6 690.8 2203.3 697.3 2205.7 707.5 C2208.2 717.6 2231 725.4 2231 725.4 L2225.7 733 z" id="f3" fill="#87430F" /><path d="M2225.7 733 C2224.8 735.1 2222.3 735.9 2217.1 733.5 C2201.5 726.3 2192.7 717.8 2195.6 702 C2198.5 686.2 2209.3 682.1 2213.9 678.2 C2215.4 676.9 2216.3 675.4 2216.6 674 C2216.6 674 2219.2 676.8 2206 689.3 C2193.4 701.3 2196.6 722.3 2225.6 730.7 L2225.7 733 z" id="g3" fill="#FFF922" /><path d="M2226.2 718.9 C2226.2 718.9 2224.2 717.5 2222.4 718.9 C2220.6 720.3 2216.3 729.3 2215 732.6 C2213.7 735.9 2218.1 736.3 2218.1 736.3 C2218.1 736.3 2227.9 727 2226.2 718.9 z" id="h3" fill="#FEDA3B" /></g><g transform="translate(16, 28)" id="i3"><path d="M2200.5 748.9 C2200.4 749.3 2200 749.3 2199.8 749 C2199.2 747.8 2198.3 745.5 2198.6 743.2 C2199.2 740 2199.5 722.9 2199.4 715 C2199.3 709.8 2201.6 697.4 2211.9 688.7 C2226.9 676 2249.7 678.2 2262 693.5 C2263.2 695 2264.4 696.7 2265.4 698.5 C2270.9 707.7 2270.7 718.3 2271.3 728 C2271.9 736.4 2272.7 743.9 2273 746.7 C2273.1 747.4 2272.8 748.1 2272.2 748.6 C2271.7 749 2271.1 748.6 2271 748.1 C2270.2 743.3 2267.2 725.2 2265.9 718.2 C2265.5 716.5 2264.2 715.3 2262.6 714.9 C2254.6 713.2 2230.2 709.2 2208.6 716.2 C2206.8 716.8 2205.5 718.3 2205.2 720.1 L2200.5 748.9 z" id="j3" fill="#EBA527" /><path d="M2272.3 748.5 C2271.8 748.9 2271.2 748.5 2271.1 748 C2270.3 743.2 2267.3 725.1 2266 718.1 C2265.6 716.4 2264.3 715.2 2262.7 714.8 C2254.7 713.1 2230.3 709.1 2208.7 716.1 C2206.9 716.7 2205.6 718.2 2205.3 720 L2200.3 748.8 C2200.2 749.2 2199.8 749.2 2199.6 748.9 C2199.5 748.7 2199.4 748.3 2199.1 748 L2204.5 717.8 C2204.7 716.6 2205.4 715.6 2206.6 715 C2210.1 713.2 2219.2 709.8 2237.5 710.2 C2253.9 710.6 2261.2 712.4 2264.3 713.6 C2265.5 714.1 2266.4 715.3 2266.7 716.5 L2272.3 748.5 z" id="k3" fill="#87430F" /><path d="M2272.3 748.5 C2272.9 748 2273.2 747.3 2273.1 746.6 C2272.7 743.8 2271.9 736.2 2271.4 727.9 C2270.9 720.9 2270.9 713.5 2268.9 706.4 L2272.3 748.5 z" id="l3" fill="#FEDA3B" /><path d="M2268.9 706.6 C2268.1 703.9 2267 701.2 2265.5 698.6 C2264.4 696.8 2263.3 695.2 2262.1 693.6 C2249.8 678.3 2227 675.9 2212 688.8 C2204.8 694.9 2201.5 702.8 2200.2 708.7 C2200.2 708.7 2209.6 701.2 2236.7 700.9 C2260.8 700.6 2268.9 706.6 2268.9 706.6 z" id="m3" fill="#FFF922" /><path d="M2199.5 748.1 C2199 746.8 2198.4 745 2198.8 743.3 C2199.4 740.1 2199.7 723 2199.6 715.1 C2199.6 713.6 2199.7 711.3 2200.3 708.7 L2199.5 748.1 z" id="n3" fill="#FEDA3B" /><path d="M2229.4 681.5 L2231.1 709.3 C2231.1 709.9 2230.7 710.2 2230.2 710.2 C2229.7 710.2 2229.4 710.4 2229.3 710.9 L2227.9 716.1 C2227.8 716.3 2227.9 716.7 2228 716.9 L2234.2 724.7 C2235.1 725.8 2236.8 725.9 2237.6 724.7 L2244.6 716.4 C2244.8 716.2 2244.8 715.8 2244.7 715.5 L2242.9 710.9 C2242.8 710.5 2242.4 710.3 2242.1 710.3 L2241.6 710.3 C2241.1 710.3 2240.7 709.8 2240.7 709.4 L2241.3 681.3 C2241.3 680.9 2241.1 680.6 2240.7 680.5 C2239.2 679.8 2234.7 678.1 2229.7 680.5 C2229.5 680.6 2229.3 681 2229.4 681.5 z" stroke="#FFBE22" stroke-width="5" id="o3" fill="none" /><path d="M2229.4 681.5 L2231.1 709.3 C2231.1 709.9 2230.7 710.2 2230.2 710.2 C2229.7 710.2 2229.4 710.4 2229.3 710.9 L2227.9 716.1 C2227.8 716.3 2227.9 716.7 2228 716.9 L2234.2 724.7 C2235.1 725.8 2236.8 725.9 2237.6 724.7 L2244.6 716.4 C2244.8 716.2 2244.8 715.8 2244.7 715.5 L2242.9 710.9 C2242.8 710.5 2242.4 710.3 2242.1 710.3 L2241.6 710.3 C2241.1 710.3 2240.7 709.8 2240.7 709.4 L2241.3 681.3 C2241.3 680.9 2241.1 680.6 2240.7 680.5 C2239.2 679.8 2234.7 678.1 2229.7 680.5 C2229.5 680.6 2229.3 681 2229.4 681.5 z" id="p3" fill="#FFFAA1" /><path d="M2236.1 679.3 C2234.3 679.2 2232.1 679.4 2229.9 680.5 C2229.5 680.6 2229.3 681 2229.3 681.4 L2231 709.2 C2231 709.8 2230.6 710.1 2230.1 710.1 C2229.6 710.1 2229.3 710.3 2229.2 710.8 L2227.8 716 C2227.7 716.2 2227.8 716.6 2227.9 716.8 L2234.1 724.6 C2234.6 725.2 2235.3 725.5 2236.1 725.4 L2236.1 679.3 L2236.1 679.3 z" id="q3" fill="#FFF922" /><path d="M2237.9 679.7 C2237.9 679.6 2237.9 679.5 2237.9 679.3 C2237.9 678.1 2236.7 677.2 2235.2 677.2 C2233.7 677.2 2232.5 678.1 2232.5 679.3 C2232.5 679.4 2232.5 679.5 2232.5 679.7 L2237.9 679.7 z" id="r3" fill="#DC771D" /><ellipse cx="2235.2" cy="681.9" rx="2.8" ry="1.8" transform="matrix(0.9721, 0.2345, -0.2345, 0.9721, 222.2161, -505.1044)" id="s3" fill="#FFA920" /><ellipse cx="2235.6" cy="686.4" rx="2.8" ry="1.8" transform="matrix(0.9721, 0.2345, -0.2345, 0.9721, 223.2764, -505.0624)" id="t3" fill="#FFC62E" /><ellipse cx="2235.6" cy="693.5" rx="2.8" ry="2.4" transform="matrix(0.9721, 0.2345, -0.2345, 0.9721, 224.9352, -504.8652)" id="u3" fill="#FFC62E" /></g></g></g></g><g transform="matrix(0.9541145, 0, 0, 0.9541145, 7.785477, 10.67992)"><g transform="translate(128.172, 203.688) scale(0.9966024, 1.00641)"><g transform="translate(336, 1037) translate(-2572.708, -1392.376)" id="v3"><g transform="translate(11, 5)" id="w3"><g transform="translate(23.79055, 0.67578)" id="x3"><g id="y3"><path d="M2236.7 374.2 C2244.5 373 2251.7 369.7 2257.8 365.1 C2259.7 363.6 2261.8 362.2 2263.8 360.6 C2265.5 359.4 2267 358.1 2268.6 356.8 C2270.6 355.1 2272.7 353.3 2275 351.8 C2278.8 349.7 2281.5 352 2282.8 355.3 C2284.3 359 2280.9 361.4 2278.1 363.6 C2271.5 368.8 2264.1 373.3 2258.2 379.2 C2253.6 383.9 2249.6 389.1 2245.7 394.2 C2245.8 394.1 2245.8 390.3 2245.8 389.8 C2245.8 389.6 2244.5 388.5 2244.3 388.1 C2242.3 384.9 2240.1 381.6 2238.1 378.4 C2237.5 377.5 2236.9 376.6 2236.3 375.7 C2236.1 375.2 2233.9 375.5 2233.5 375.5 C2233.3 375.5 2230.7 375.6 2230.6 375.4 C2230.6 375.1 2236.5 374.2 2236.7 374.2 C2249.9 372.2 2223.5 376.3 2236.7 374.2 z" id="z3" fill="#FF4F19" /><path d="M2235.9 376.2 C2238 379.5 2240.3 382.9 2242.4 386.2 C2243.2 387.3 2243.8 388.9 2244.9 389.9 C2245.7 390.5 2245.3 391.1 2245.3 392.1 C2245.3 392.6 2244.9 395.5 2246.2 394.8 C2247.1 393 2252.6 396.5 2253.9 394.8 C2255.3 392.9 2255.8 392 2257.4 390.2 C2259.4 387.7 2259.6 387.7 2262.1 381.2 C2264.9 374 2273.9 368.1 2279.9 363.4 C2282.8 361.2 2285.2 358.6 2283.2 355 C2282.3 353.5 2281.2 351.6 2279.2 351 C2277.2 350.4 2275 351.7 2273.5 352.9 C2267.8 357.4 2262.2 362.1 2258.1 364.3 C2253.4 366.9 2249.4 366.5 2244.1 368 C2241.4 368.7 2235.8 374.4 2233 374.8 C2232.5 374.9 2230.5 375 2230.4 375.7 C2230.4 376.9 2233 376.4 2233.7 376.4 C2233.9 376.3 2235.8 376.1 2235.9 376.2 z" stroke="#990202" stroke-width="0.877" id="a4" fill="#FF4F19" /></g><g id="b4"><path d="M2237.2 374.2 C2244.9 372.9 2251.8 369.7 2257.8 365.2 C2259.7 363.7 2261.8 362.3 2263.8 360.7 C2265.5 359.5 2267 358.2 2268.6 356.9 C2270.6 355.2 2272.7 353.4 2275 351.9 C2277 350.7 2278.8 351 2280.2 351.9 C2280.3 353.3 2280 354.7 2278.8 355.8 C2273.3 361.1 2267.8 366.2 2261.4 370.5 C2257.3 373.3 2252.9 375.9 2248.7 378.5 C2247.4 379.3 2246.1 380.2 2244.8 380.9 C2243.9 381.5 2243.1 382.2 2242 381.6 C2241.5 381.4 2241.1 380.3 2240.8 379.8 C2239.7 378 2238.5 376.1 2237.2 374.2 C2240.4 373.7 2243 373.3 2236.7 374.3 C2236.5 374.3 2230.6 375.2 2230.5 375.6 C2230.6 375.8 2233.2 375.7 2233.4 375.7 C2233.9 375.7 2236 375.5 2236.2 375.9 C2236.8 376.8 2237.4 377.7 2238 378.6 C2240 381.8 2242.2 385.1 2244.2 388.3 C2244.4 388.7 2245.7 389.7 2245.7 390 C2245.7 390.5 2245.7 394.2 2245.6 394.4 C2249.6 389.3 2255.7 388.5 2260.3 383.8 C2263.7 374.4 2271.5 369.1 2278.1 363.9 C2280.9 361.8 2284.3 359.3 2282.8 355.6 C2281.5 352.3 2278.7 349.9 2275 352.1 C2272.6 353.5 2270.6 355.4 2268.6 357.1 C2266.9 358.4 2265.4 359.7 2263.8 360.9 C2261.8 362.4 2259.7 363.8 2257.8 365.4 C2251.7 370 2244.5 373.3 2236.7 374.5 L2237.2 374.2 z" id="c4" fill="#E3001E" /></g></g><g transform="translate(23.50775, 19.67578) scale(-1, 1) translate(-23.50775, -19.67578) translate(0.00775, 0.67578)" id="d4"><g id="e4"><path d="M-2227.3 374.2 C-2219.5 373 -2212.3 369.7 -2206.2 365.1 C-2204.3 363.6 -2202.2 362.2 -2200.2 360.6 C-2198.5 359.4 -2197 358.1 -2195.4 356.8 C-2193.4 355.1 -2191.3 353.3 -2189 351.8 C-2185.2 349.7 -2182.5 352 -2181.2 355.3 C-2179.7 359 -2183.1 361.4 -2185.9 363.6 C-2192.5 368.8 -2199.9 373.3 -2205.8 379.2 C-2210.4 383.9 -2214.4 389.1 -2218.3 394.2 C-2218.2 394.1 -2218.2 390.3 -2218.2 389.8 C-2218.2 389.6 -2219.5 388.5 -2219.7 388.1 C-2221.7 384.9 -2223.9 381.6 -2225.9 378.4 C-2226.5 377.5 -2227.1 376.6 -2227.7 375.7 C-2227.9 375.2 -2230.1 375.5 -2230.5 375.5 C-2230.7 375.5 -2233.3 375.6 -2233.4 375.4 C-2233.5 375.1 -2227.6 374.2 -2227.3 374.2 C-2214.1 372.2 -2240.5 376.3 -2227.3 374.2 z" id="f4" fill="#FF4F19" /><path d="M-2228 376.2 C-2225.9 379.5 -2223.6 382.9 -2221.5 386.2 C-2220.7 387.3 -2220.1 388.9 -2219 389.9 C-2218.2 390.5 -2218.6 391.1 -2218.6 392.1 C-2218.6 392.6 -2219 395.5 -2217.7 394.8 C-2216.8 393 -2211.3 396.5 -2210 394.8 C-2208.6 392.9 -2208.1 392 -2206.5 390.2 C-2204.5 387.7 -2204.3 387.7 -2201.8 381.2 C-2199 374 -2190 368.1 -2184 363.4 C-2181.1 361.2 -2178.7 358.6 -2180.7 355 C-2181.6 353.5 -2182.7 351.6 -2184.7 351 C-2186.7 350.4 -2188.9 351.7 -2190.4 352.9 C-2196.1 357.4 -2201.7 362.1 -2205.8 364.3 C-2210.5 366.9 -2214.5 366.5 -2219.8 368 C-2222.5 368.7 -2228.1 374.4 -2230.9 374.8 C-2231.4 374.9 -2233.4 375 -2233.5 375.7 C-2233.5 376.9 -2230.9 376.4 -2230.2 376.4 C-2230.2 376.3 -2228.2 376.1 -2228 376.2 z" stroke="#990202" stroke-width="0.877" id="g4" fill="#FF4F19" /></g><g id="h4"><path d="M-2226.9 374.2 C-2219.2 372.9 -2212.3 369.7 -2206.3 365.2 C-2204.4 363.7 -2202.3 362.3 -2200.3 360.7 C-2198.6 359.5 -2197.1 358.2 -2195.5 356.9 C-2193.5 355.2 -2191.4 353.4 -2189.1 351.9 C-2187.1 350.7 -2185.3 351 -2183.9 351.9 C-2183.8 353.3 -2184.1 354.7 -2185.3 355.8 C-2190.8 361.1 -2196.3 366.2 -2202.7 370.5 C-2206.8 373.3 -2211.2 375.9 -2215.4 378.5 C-2216.7 379.3 -2218 380.2 -2219.3 380.9 C-2220.2 381.5 -2221 382.2 -2222.1 381.6 C-2222.6 381.4 -2223 380.3 -2223.3 379.8 C-2224.3 378 -2225.6 376.1 -2226.9 374.2 C-2223.7 373.7 -2221.1 373.3 -2227.4 374.3 C-2227.6 374.3 -2233.5 375.2 -2233.6 375.6 C-2233.5 375.8 -2230.9 375.7 -2230.7 375.7 C-2230.2 375.7 -2228.1 375.5 -2227.9 375.9 C-2227.3 376.8 -2226.7 377.7 -2226.1 378.6 C-2224.1 381.8 -2221.9 385.1 -2219.9 388.3 C-2219.7 388.7 -2218.4 389.7 -2218.4 390 C-2218.4 390.5 -2218.4 394.2 -2218.5 394.4 C-2214.5 389.3 -2208.4 388.5 -2203.8 383.8 C-2200.4 374.4 -2192.6 369.1 -2186 363.9 C-2183.2 361.8 -2179.8 359.3 -2181.3 355.6 C-2182.6 352.3 -2185.4 349.9 -2189.1 352.1 C-2191.5 353.5 -2193.5 355.4 -2195.5 357.1 C-2197.2 358.4 -2198.7 359.7 -2200.3 360.9 C-2202.3 362.4 -2204.4 363.8 -2206.3 365.4 C-2212.4 370 -2219.6 373.3 -2227.4 374.5 L-2226.9 374.2 z" id="i4" fill="#E3001E" /></g></g></g><g transform="translate(29, 18)" id="j4"><g id="k4"><path d="M2249.3 354.9 C2256.7 354.9 2263.3 359.5 2266.4 366.1 C2269.5 372.9 2268.5 381.3 2263.7 387.1 C2259 392.8 2251.2 395.4 2244.1 393.2 C2237 391.1 2231.8 384.8 2230.7 377.6 C2228.9 366.4 2237.3 354.9 2249.3 354.9 z" id="l4" fill="#FFA100" /><path d="M2249.3 353.9 C2256.7 353.9 2263.6 358.3 2266.9 364.9 C2270.3 371.7 2269.8 380.1 2265.6 386.5 C2261.4 392.6 2254 396 2246.6 395 C2239.3 393.9 2233.2 388.6 2230.7 381.8 C2225.9 368.8 2235.2 353.9 2249.3 353.9 z" stroke="#AC4D1A" stroke-width="1.8" id="m4" fill="none" /></g><path d="M2238.2 358.7 C2247.7 351.6 2261.2 355.2 2266.3 365.8 C2271.4 376.3 2266.2 389.5 2255.1 393.3 C2245.4 373.7 2239.7 362.2 2238.2 358.7 C2241.4 356.3 2239.7 362.2 2238.2 358.7 z" id="n4" fill="#FFCD00" /><path d="M2249.3 375.3 C2252 375.3 2254.3 378.4 2255 380.7 C2255.4 382 2255.2 383.2 2253.8 383.8 C2252.1 384.4 2251 383.4 2249.3 383.4 C2247.6 383.4 2246.5 384.3 2244.8 383.8 C2243.4 383.2 2243.1 382.1 2243.6 380.9 C2244.3 378.5 2246.5 375.3 2249.3 375.3 z M2246 373.4 C2242.9 373.4 2242.9 365.9 2246 365.9 C2249 365.9 2249 373.4 2246 373.4 z M2252.2 373.3 C2249.3 373.3 2249.3 365.8 2252.2 365.8 C2255.1 365.8 2255.1 373.3 2252.2 373.3 z M2243.1 374.4 C2243.7 375.5 2243.6 377.7 2241.8 377.1 C2240.5 376.6 2239.3 374.3 2240.7 373.3 C2241.5 373 2242.5 373.4 2243.1 374.4 C2243.7 375.4 2242.5 373.4 2243.1 374.4 z M2257.4 375.8 C2256.7 377 2254.6 377.8 2254.5 375.8 C2254.4 374.6 2255.8 372.3 2257.2 373.2 C2258 373.6 2258 374.7 2257.4 375.8 z" id="o4" fill="#FFF" /><path d="M2250.3 383.7 C2248.3 382.6 2245.1 385.7 2243.6 383 C2242.4 381 2245.3 377.6 2246.7 376.5 L2250.3 383.7 z M2245 373.1 L2243.8 370.6 C2243.9 371.7 2244.4 372.6 2245 373.1 z M2243.1 374.4 C2243.7 375.5 2243.6 377.7 2241.8 377.1 C2240.5 376.6 2239.3 374.3 2240.7 373.3 C2241.5 373 2242.5 373.4 2243.1 374.4 C2243.7 375.4 2242.5 373.4 2243.1 374.4 z" id="p4" fill="#FFCE00" /><g transform="translate(3, 4)" id="q4"><path d="M2261.5 371.4 C2260.2 371.4 2260.3 369.5 2261.4 369.5 C2262.5 369.6 2262.5 371.4 2261.5 371.4 z" id="r4" fill="#FFF" /><path d="M2246.4 355.9 C2245.1 355.9 2245.2 354 2246.3 354 C2247.4 354 2247.4 355.9 2246.4 355.9 z" id="s4" fill="#FFF" /><path d="M2235.6 360.4 C2234.4 360.4 2234.3 358.5 2235.5 358.5 C2236.7 358.5 2236.7 360.4 2235.6 360.4 z" id="t4" fill="#FFCD00" /><path d="M2257 382.5 C2255.8 382.5 2255.8 380.6 2256.9 380.6 C2258 380.6 2258.2 382.5 2257 382.5 z" id="u4" fill="#FFF" /><path d="M2257 360.4 C2255.8 360.4 2255.8 358.5 2256.9 358.5 C2258 358.5 2258 360.4 2257 360.4 z" id="v4" fill="#FFF" /><path d="M2260.3 365.5 C2259.1 365.5 2259.1 363.6 2260.2 363.6 C2261.3 363.7 2261.5 365.5 2260.3 365.5 z" id="w4" fill="#FFF" /><path d="M2240.5 357.1 C2239.3 357.1 2239.3 355.1 2240.5 355.1 C2241.8 355.1 2241.7 357.1 2240.5 357.1 z" id="x4" fill="#FFF" /><path d="M2260.3 377.5 C2259.1 377.5 2259.1 375.6 2260.2 375.6 C2261.3 375.6 2261.5 377.5 2260.3 377.5 z" id="y4" fill="#FFF" /><path d="M2252.1 357.1 C2250.9 357.1 2250.9 355.2 2252 355.2 C2253.2 355.2 2253.3 357.1 2252.1 357.1 z" id="z4" fill="#FFF" /><path d="M2261.1 368.4 C2259.8 368.4 2259.9 366.5 2261 366.5 C2262.2 366.5 2262.2 368.4 2261.1 368.4 z" id="a5" fill="#FFF" /><path d="M2243.3 356.1 C2242 356.1 2242.1 354.2 2243.2 354.2 C2244.4 354.2 2244.5 356.1 2243.3 356.1 z" id="b5" fill="#FFF" /><path d="M2258.9 380.2 C2257.7 380.2 2257.7 378.3 2258.8 378.3 C2259.9 378.3 2260 380.2 2258.9 380.2 z" id="c5" fill="#FFF" /><path d="M2254.6 358.5 C2253.4 358.5 2253.4 356.6 2254.5 356.6 C2255.7 356.6 2255.7 358.5 2254.6 358.5 z" id="d5" fill="#FFF" /><path d="M2258.9 362.7 C2257.7 362.7 2257.7 360.8 2258.8 360.8 C2259.9 360.8 2259.9 362.7 2258.9 362.7 z" id="e5" fill="#FFF" /><path d="M2237.9 358.5 C2236.7 358.5 2236.7 356.6 2237.8 356.6 C2238.9 356.6 2239.1 358.5 2237.9 358.5 z" id="f5" fill="#FFF" /><path d="M2261.1 374.5 C2259.9 374.5 2259.9 372.6 2261 372.6 C2262.2 372.6 2262.2 374.5 2261.1 374.5 z" id="g5" fill="#FFF" /><path d="M2249.2 356.1 C2248 356.1 2248 354.2 2249.1 354.2 C2250.3 354.2 2250.4 356.1 2249.2 356.1 z" id="h5" fill="#FFF" /><path d="M2231.2 371.4 C2230 371.4 2230 369.5 2231.1 369.5 C2232.2 369.6 2232.2 371.4 2231.2 371.4 z" id="i5" fill="#FFCD00" /><path d="M2246.4 387.1 C2245.1 387.1 2245.2 385.2 2246.3 385.2 C2247.4 385.2 2247.4 387.1 2246.4 387.1 z" id="j5" fill="#FFCD00" /><path d="M2235.6 382.5 C2234.3 382.5 2234.4 380.6 2235.5 380.6 C2236.7 380.6 2236.7 382.5 2235.6 382.5 z" id="k5" fill="#FFCD00" /><path d="M2232.3 377.5 C2231.1 377.5 2231.1 375.6 2232.2 375.6 C2233.4 375.6 2233.4 377.5 2232.3 377.5 z" id="l5" fill="#FFCD00" /><path d="M2252.1 385.9 C2250.9 385.9 2250.9 384 2252 384 C2253.2 384.1 2253.3 385.9 2252.1 385.9 z" id="m5" fill="#FFF" /><path d="M2232.3 365.5 C2231 365.5 2231.1 363.5 2232.3 363.5 C2233.6 363.5 2233.5 365.5 2232.3 365.5 z" id="n5" fill="#FFCD00" /><path d="M2240.5 385.9 C2239.3 385.9 2239.3 384 2240.4 384 C2241.5 384.1 2241.5 385.9 2240.5 385.9 z" id="o5" fill="#FFCD00" /><path d="M2231.5 374.6 C2230.3 374.6 2230.3 372.7 2231.4 372.7 C2232.6 372.7 2232.7 374.6 2231.5 374.6 z" id="p5" fill="#FFCD00" /><path d="M2249.3 386.9 C2248 386.9 2248.1 385 2249.2 385 C2250.4 385 2250.4 386.9 2249.3 386.9 z" id="q5" fill="#FFCD00" /><path d="M2233.8 362.8 C2232.6 362.8 2232.6 360.9 2233.7 360.9 C2234.8 360.9 2234.8 362.8 2233.8 362.8 z" id="r5" fill="#FFCD00" /><path d="M2238 384.5 C2236.7 384.5 2236.8 382.6 2237.9 382.6 C2239.1 382.6 2239.1 384.5 2238 384.5 z" id="s5" fill="#FFCD00" /><path d="M2233.8 380.3 C2232.6 380.3 2232.6 378.4 2233.7 378.4 C2234.8 378.4 2234.8 380.3 2233.8 380.3 z" id="t5" fill="#FFCD00" /><path d="M2254.7 384.4 C2253.4 384.4 2253.5 382.5 2254.6 382.5 C2255.8 382.5 2255.8 384.4 2254.7 384.4 z" id="u5" fill="#FFF" /><path d="M2231.5 368.5 C2230.3 368.5 2230.3 366.6 2231.4 366.6 C2232.6 366.6 2232.6 368.5 2231.5 368.5 z" id="v5" fill="#FFCD00" /><path d="M2243.4 386.9 C2242.1 386.9 2242.2 385 2243.3 385 C2244.5 385 2244.5 386.9 2243.4 386.9 z" id="w5" fill="#FFCD00" /></g></g></g></g></g></g><g transform="translate(39.29518, 265.301)" id="x5"><ellipse cx="32.5" cy="17.5" rx="37.3" ry="13.2" opacity="0.15" id="y5" /><use xlink:href="#e" x="1.51" y="0" /></g><g transform="translate(235.8952, 266.9009)" id="z5"><ellipse cx="32.5" cy="17.5" rx="37.3" ry="13.2" fill-opacity="0.15" id="a6" /><use xlink:href="#e" x="0.08" y="0" /></g></g><defs><g transform="translate(17.09519, 0.800995) translate(-135.2952, -293.601)" id="e" fill="#000"><path d="M118.2 302.7 C118.4 307.4 132.5 311.2 149.8 311.2 C167.1 311.2 181.2 307.4 181.4 302.7 C181.4 307.5 181.4 310.1 181.4 310.5 C181.4 315.3 167.3 319.1 149.8 319.1 C132.3 319.1 118.2 315.2 118.2 310.5 L118.2 302.7 L118.2 302.7 z" fill-opacity="0.4528" id="b6" fill="#593001" /><path d="M118.7 301.7 C118.9 306.4 133 310.2 150.3 310.2 C167.6 310.2 181.7 306.4 181.9 301.7 C181.9 306.5 181.9 309.1 181.9 309.5 C181.9 314.3 167.8 318.1 150.3 318.1 C132.8 318.1 118.7 314.2 118.7 309.5 L118.7 301.7 L118.7 301.7 z" id="c6" fill="#DA8113" /><linearGradient x1="46.0545" y1="-118.6926" x2="45.4656" y2="-118.6926" gradientUnits="userSpaceOnUse" gradientTransform="matrix(117.135, 0, 0, 28.4634, -5208.417, 3687.795)" id="d6"><stop offset="0%" stop-color="#D9952A" stop-opacity="1" /><stop offset="6.438854%" stop-color="#CA7519" stop-opacity="1" /><stop offset="30.54%" stop-color="#E3AD3A" stop-opacity="1" /><stop offset="51.05%" stop-color="#FFEC91" stop-opacity="1" /><stop offset="68.8%" stop-color="#E9BD44" stop-opacity="1" /><stop offset="86.24%" stop-color="#FFED6C" stop-opacity="1" /><stop offset="93.87%" stop-color="#F2D353" stop-opacity="1" /><stop offset="100%" stop-color="#F2B947" stop-opacity="1" /></linearGradient><path d="M118.2 301.6 C118.4 306.1 132.7 309.7 150.3 309.7 C167.9 309.7 182.2 306.1 182.4 301.6 C182.4 306.2 182.4 308.7 182.4 309 C182.4 313.5 168 317.2 150.3 317.2 C132.6 317.2 118.2 313.5 118.2 309 L118.2 301.6 L118.2 301.6 z" id="e6" style="fill:url(#d6)" /><linearGradient x1="45.4914" y1="-117.9547" x2="45.9407" y2="-117.5895" gradientUnits="userSpaceOnUse" gradientTransform="matrix(115.425, 0, 0, 29.925, -5125.077, 3826.124)" id="f6"><stop offset="0%" stop-color="#F4E072" stop-opacity="1" /><stop offset="100%" stop-color="#DB9427" stop-opacity="1" /></linearGradient><ellipse cx="150.3" cy="301.5" rx="31.6" ry="8.2" id="g6" style="fill:url(#f6)" /><linearGradient x1="45.4656" y1="-126.0065" x2="46.0545" y2="-126.0065" gradientUnits="userSpaceOnUse" gradientTransform="matrix(117.135, 0, 0, 18.6219, -5208.417, 2651.479)" id="h6"><stop offset="0%" stop-color="#D9952A" stop-opacity="1" /><stop offset="6.438854%" stop-color="#CA7519" stop-opacity="1" /><stop offset="30.54%" stop-color="#E3AD3A" stop-opacity="1" /><stop offset="51.05%" stop-color="#FFEC91" stop-opacity="1" /><stop offset="68.8%" stop-color="#E9BD44" stop-opacity="1" /><stop offset="86.24%" stop-color="#FFED6C" stop-opacity="1" /><stop offset="93.87%" stop-color="#F2D353" stop-opacity="1" /><stop offset="100%" stop-color="#F2B947" stop-opacity="1" /></linearGradient><path d="M119.2 299.9 C119 300.2 118.9 300.6 118.9 301 C118.9 305.5 132.9 309.2 150.3 309.2 C167.7 309.2 181.7 305.5 181.7 301 C181.7 300.6 181.6 300.3 181.4 299.9 C182 300.5 182.4 301.2 182.4 301.9 C182.4 306.4 168 310.1 150.3 310.1 C132.6 310.1 118.2 306.4 118.2 301.9 C118.2 301.3 118.6 300.6 119.2 299.9 z" id="i6" style="fill:url(#h6)" /><linearGradient x1="45.196" y1="-121.5895" x2="45.3746" y2="-120.6758" gradientUnits="userSpaceOnUse" gradientTransform="matrix(101.745, 0, 0, 23.94, -4458.332, 3199.41)" id="j6"><stop offset="0%" stop-color="#F8DD61" stop-opacity="1" /><stop offset="100%" stop-color="#EAA330" stop-opacity="1" /></linearGradient><ellipse cx="150.3" cy="300.8" rx="27.8" ry="6.6" id="k6" style="fill:url(#j6)" /><linearGradient x1="45.5694" y1="-134.267" x2="45.0221" y2="-134.267" gradientUnits="userSpaceOnUse" gradientTransform="matrix(101.745, 0, 0, 13.2525, -4458.332, 2077.223)" id="l6"><stop offset="0%" stop-color="#F4CA2F" stop-opacity="1" /><stop offset="51.38%" stop-color="#BF7737" stop-opacity="1" /><stop offset="100%" stop-color="#E4A929" stop-opacity="1" /></linearGradient><path d="M122.6 301.5 C122.5 301.3 122.4 301 122.4 300.8 C122.4 297.2 134.9 294.2 150.2 294.2 C165.5 294.2 178 297.1 178 300.8 C178 301 177.9 301.3 177.8 301.5 C176.3 298.2 164.5 295.6 150.1 295.6 C135.7 295.6 124.1 298.2 122.6 301.5 z" id="m6" style="fill:url(#l6)" /></g></defs><desc>DOCBL2L8L6L,EBWZxErqmAEwVv7Vb57JJI93xndTTPlp6qt4OGVj73uBJzRK7tYm8dfk4TejvfngMuBhYJVo1409T/qX5AEUV5NrEP6ZW+M0uL0YQQW+ixBFcmZOOyDaNMhpa5ewnjpoVqDd5g93gHQU9+qZIjy3SIZeFPe1XbKLP8FD/AgwdY63p/4eUh2t4TcTU/fjkiWfrF8nSLy930XMlhb9VARLdAwKnYG92+no8yqJ9Y8eqjJyj/J6FSKU00OSf4qXSbIsyvS6bmDIEjQmRBGJaprV/+x9tMAxqbioFNmJa5VwkqdWir740VnfKTkKYsgf3PSf</desc></svg>